<svg xmlns="http://www.w3.org/2000/svg" width="600" height="800" viewBox="0 0 600 800">
<defs>

<radialGradient id="g1" cx="20%" cy="20%" r="45%">
  <stop offset="0%" stop-color="#00ffcc" stop-opacity="0.22"/>
  <stop offset="100%" stop-color="#00ffcc" stop-opacity="0"/>
</radialGradient>
<radialGradient id="g2" cx="80%" cy="15%" r="40%">
  <stop offset="0%" stop-color="#ff00ff" stop-opacity="0.20"/>
  <stop offset="100%" stop-color="#ff00ff" stop-opacity="0"/>
</radialGradient>
<radialGradient id="g3" cx="15%" cy="75%" r="45%">
  <stop offset="0%" stop-color="#ff6600" stop-opacity="0.18"/>
  <stop offset="100%" stop-color="#ff6600" stop-opacity="0"/>
</radialGradient>
<radialGradient id="g4" cx="85%" cy="80%" r="40%">
  <stop offset="0%" stop-color="#0066ff" stop-opacity="0.20"/>
  <stop offset="100%" stop-color="#0066ff" stop-opacity="0"/>
</radialGradient>
<radialGradient id="g5" cx="50%" cy="50%" r="35%">
  <stop offset="0%" stop-color="#ffff00" stop-opacity="0.06"/>
  <stop offset="100%" stop-color="#ffff00" stop-opacity="0"/>
</radialGradient>
<linearGradient id="fade" x1="0" y1="0" x2="0" y2="1">
  <stop offset="50%" stop-color="rgba(0,0,0,0)"/>
  <stop offset="100%" stop-color="rgba(0,0,0,0.90)"/>
</linearGradient>

</defs>

<!-- Dark base background -->
<rect width="600" height="800" fill="#080c14"/>

<!-- Neon glow layers -->
<rect width="600" height="800" fill="url(#g1)"/>
<rect width="600" height="800" fill="url(#g2)"/>
<rect width="600" height="800" fill="url(#g3)"/>
<rect width="600" height="800" fill="url(#g4)"/>
<rect width="600" height="800" fill="url(#g5)"/>

<!-- Subtle scanline texture -->
<line x1="0" y1="0" x2="600" y2="0" stroke="rgba(255,255,255,0.012)" stroke-width="1"/><line x1="0" y1="4" x2="600" y2="4" stroke="rgba(255,255,255,0.012)" stroke-width="1"/><line x1="0" y1="8" x2="600" y2="8" stroke="rgba(255,255,255,0.012)" stroke-width="1"/><line x1="0" y1="12" x2="600" y2="12" stroke="rgba(255,255,255,0.012)" stroke-width="1"/><line x1="0" y1="16" x2="600" y2="16" stroke="rgba(255,255,255,0.012)" stroke-width="1"/><line x1="0" y1="20" x2="600" y2="20" stroke="rgba(255,255,255,0.012)" stroke-width="1"/><line x1="0" y1="24" x2="600" y2="24" stroke="rgba(255,255,255,0.012)" stroke-width="1"/><line x1="0" y1="28" x2="600" y2="28" stroke="rgba(255,255,255,0.012)" stroke-width="1"/><line x1="0" y1="32" x2="600" y2="32" stroke="rgba(255,255,255,0.012)" stroke-width="1"/><line x1="0" y1="36" x2="600" y2="36" stroke="rgba(255,255,255,0.012)" stroke-width="1"/><line x1="0" y1="40" x2="600" y2="40" stroke="rgba(255,255,255,0.012)" stroke-width="1"/><line x1="0" y1="44" x2="600" y2="44" stroke="rgba(255,255,255,0.012)" stroke-width="1"/><line x1="0" y1="48" x2="600" y2="48" stroke="rgba(255,255,255,0.012)" stroke-width="1"/><line x1="0" y1="52" x2="600" y2="52" stroke="rgba(255,255,255,0.012)" stroke-width="1"/><line x1="0" y1="56" x2="600" y2="56" stroke="rgba(255,255,255,0.012)" stroke-width="1"/><line x1="0" y1="60" x2="600" y2="60" stroke="rgba(255,255,255,0.012)" stroke-width="1"/><line x1="0" y1="64" x2="600" y2="64" stroke="rgba(255,255,255,0.012)" stroke-width="1"/><line x1="0" y1="68" x2="600" y2="68" stroke="rgba(255,255,255,0.012)" stroke-width="1"/><line x1="0" y1="72" x2="600" y2="72" stroke="rgba(255,255,255,0.012)" stroke-width="1"/><line x1="0" y1="76" x2="600" y2="76" stroke="rgba(255,255,255,0.012)" stroke-width="1"/><line x1="0" y1="80" x2="600" y2="80" stroke="rgba(255,255,255,0.012)" stroke-width="1"/><line x1="0" y1="84" x2="600" y2="84" stroke="rgba(255,255,255,0.012)" stroke-width="1"/><line x1="0" y1="88" x2="600" y2="88" stroke="rgba(255,255,255,0.012)" stroke-width="1"/><line x1="0" y1="92" x2="600" y2="92" stroke="rgba(255,255,255,0.012)" stroke-width="1"/><line x1="0" y1="96" x2="600" y2="96" stroke="rgba(255,255,255,0.012)" stroke-width="1"/><line x1="0" y1="100" x2="600" y2="100" stroke="rgba(255,255,255,0.012)" stroke-width="1"/><line x1="0" y1="104" x2="600" y2="104" stroke="rgba(255,255,255,0.012)" stroke-width="1"/><line x1="0" y1="108" x2="600" y2="108" stroke="rgba(255,255,255,0.012)" stroke-width="1"/><line x1="0" y1="112" x2="600" y2="112" stroke="rgba(255,255,255,0.012)" stroke-width="1"/><line x1="0" y1="116" x2="600" y2="116" stroke="rgba(255,255,255,0.012)" stroke-width="1"/><line x1="0" y1="120" x2="600" y2="120" stroke="rgba(255,255,255,0.012)" stroke-width="1"/><line x1="0" y1="124" x2="600" y2="124" stroke="rgba(255,255,255,0.012)" stroke-width="1"/><line x1="0" y1="128" x2="600" y2="128" stroke="rgba(255,255,255,0.012)" stroke-width="1"/><line x1="0" y1="132" x2="600" y2="132" stroke="rgba(255,255,255,0.012)" stroke-width="1"/><line x1="0" y1="136" x2="600" y2="136" stroke="rgba(255,255,255,0.012)" stroke-width="1"/><line x1="0" y1="140" x2="600" y2="140" stroke="rgba(255,255,255,0.012)" stroke-width="1"/><line x1="0" y1="144" x2="600" y2="144" stroke="rgba(255,255,255,0.012)" stroke-width="1"/><line x1="0" y1="148" x2="600" y2="148" stroke="rgba(255,255,255,0.012)" stroke-width="1"/><line x1="0" y1="152" x2="600" y2="152" stroke="rgba(255,255,255,0.012)" stroke-width="1"/><line x1="0" y1="156" x2="600" y2="156" stroke="rgba(255,255,255,0.012)" stroke-width="1"/><line x1="0" y1="160" x2="600" y2="160" stroke="rgba(255,255,255,0.012)" stroke-width="1"/><line x1="0" y1="164" x2="600" y2="164" stroke="rgba(255,255,255,0.012)" stroke-width="1"/><line x1="0" y1="168" x2="600" y2="168" stroke="rgba(255,255,255,0.012)" stroke-width="1"/><line x1="0" y1="172" x2="600" y2="172" stroke="rgba(255,255,255,0.012)" stroke-width="1"/><line x1="0" y1="176" x2="600" y2="176" stroke="rgba(255,255,255,0.012)" stroke-width="1"/><line x1="0" y1="180" x2="600" y2="180" stroke="rgba(255,255,255,0.012)" stroke-width="1"/><line x1="0" y1="184" x2="600" y2="184" stroke="rgba(255,255,255,0.012)" stroke-width="1"/><line x1="0" y1="188" x2="600" y2="188" stroke="rgba(255,255,255,0.012)" stroke-width="1"/><line x1="0" y1="192" x2="600" y2="192" stroke="rgba(255,255,255,0.012)" stroke-width="1"/><line x1="0" y1="196" x2="600" y2="196" stroke="rgba(255,255,255,0.012)" stroke-width="1"/><line x1="0" y1="200" x2="600" y2="200" stroke="rgba(255,255,255,0.012)" stroke-width="1"/><line x1="0" y1="204" x2="600" y2="204" stroke="rgba(255,255,255,0.012)" stroke-width="1"/><line x1="0" y1="208" x2="600" y2="208" stroke="rgba(255,255,255,0.012)" stroke-width="1"/><line x1="0" y1="212" x2="600" y2="212" stroke="rgba(255,255,255,0.012)" stroke-width="1"/><line x1="0" y1="216" x2="600" y2="216" stroke="rgba(255,255,255,0.012)" stroke-width="1"/><line x1="0" y1="220" x2="600" y2="220" stroke="rgba(255,255,255,0.012)" stroke-width="1"/><line x1="0" y1="224" x2="600" y2="224" stroke="rgba(255,255,255,0.012)" stroke-width="1"/><line x1="0" y1="228" x2="600" y2="228" stroke="rgba(255,255,255,0.012)" stroke-width="1"/><line x1="0" y1="232" x2="600" y2="232" stroke="rgba(255,255,255,0.012)" stroke-width="1"/><line x1="0" y1="236" x2="600" y2="236" stroke="rgba(255,255,255,0.012)" stroke-width="1"/><line x1="0" y1="240" x2="600" y2="240" stroke="rgba(255,255,255,0.012)" stroke-width="1"/><line x1="0" y1="244" x2="600" y2="244" stroke="rgba(255,255,255,0.012)" stroke-width="1"/><line x1="0" y1="248" x2="600" y2="248" stroke="rgba(255,255,255,0.012)" stroke-width="1"/><line x1="0" y1="252" x2="600" y2="252" stroke="rgba(255,255,255,0.012)" stroke-width="1"/><line x1="0" y1="256" x2="600" y2="256" stroke="rgba(255,255,255,0.012)" stroke-width="1"/><line x1="0" y1="260" x2="600" y2="260" stroke="rgba(255,255,255,0.012)" stroke-width="1"/><line x1="0" y1="264" x2="600" y2="264" stroke="rgba(255,255,255,0.012)" stroke-width="1"/><line x1="0" y1="268" x2="600" y2="268" stroke="rgba(255,255,255,0.012)" stroke-width="1"/><line x1="0" y1="272" x2="600" y2="272" stroke="rgba(255,255,255,0.012)" stroke-width="1"/><line x1="0" y1="276" x2="600" y2="276" stroke="rgba(255,255,255,0.012)" stroke-width="1"/><line x1="0" y1="280" x2="600" y2="280" stroke="rgba(255,255,255,0.012)" stroke-width="1"/><line x1="0" y1="284" x2="600" y2="284" stroke="rgba(255,255,255,0.012)" stroke-width="1"/><line x1="0" y1="288" x2="600" y2="288" stroke="rgba(255,255,255,0.012)" stroke-width="1"/><line x1="0" y1="292" x2="600" y2="292" stroke="rgba(255,255,255,0.012)" stroke-width="1"/><line x1="0" y1="296" x2="600" y2="296" stroke="rgba(255,255,255,0.012)" stroke-width="1"/><line x1="0" y1="300" x2="600" y2="300" stroke="rgba(255,255,255,0.012)" stroke-width="1"/><line x1="0" y1="304" x2="600" y2="304" stroke="rgba(255,255,255,0.012)" stroke-width="1"/><line x1="0" y1="308" x2="600" y2="308" stroke="rgba(255,255,255,0.012)" stroke-width="1"/><line x1="0" y1="312" x2="600" y2="312" stroke="rgba(255,255,255,0.012)" stroke-width="1"/><line x1="0" y1="316" x2="600" y2="316" stroke="rgba(255,255,255,0.012)" stroke-width="1"/><line x1="0" y1="320" x2="600" y2="320" stroke="rgba(255,255,255,0.012)" stroke-width="1"/><line x1="0" y1="324" x2="600" y2="324" stroke="rgba(255,255,255,0.012)" stroke-width="1"/><line x1="0" y1="328" x2="600" y2="328" stroke="rgba(255,255,255,0.012)" stroke-width="1"/><line x1="0" y1="332" x2="600" y2="332" stroke="rgba(255,255,255,0.012)" stroke-width="1"/><line x1="0" y1="336" x2="600" y2="336" stroke="rgba(255,255,255,0.012)" stroke-width="1"/><line x1="0" y1="340" x2="600" y2="340" stroke="rgba(255,255,255,0.012)" stroke-width="1"/><line x1="0" y1="344" x2="600" y2="344" stroke="rgba(255,255,255,0.012)" stroke-width="1"/><line x1="0" y1="348" x2="600" y2="348" stroke="rgba(255,255,255,0.012)" stroke-width="1"/><line x1="0" y1="352" x2="600" y2="352" stroke="rgba(255,255,255,0.012)" stroke-width="1"/><line x1="0" y1="356" x2="600" y2="356" stroke="rgba(255,255,255,0.012)" stroke-width="1"/><line x1="0" y1="360" x2="600" y2="360" stroke="rgba(255,255,255,0.012)" stroke-width="1"/><line x1="0" y1="364" x2="600" y2="364" stroke="rgba(255,255,255,0.012)" stroke-width="1"/><line x1="0" y1="368" x2="600" y2="368" stroke="rgba(255,255,255,0.012)" stroke-width="1"/><line x1="0" y1="372" x2="600" y2="372" stroke="rgba(255,255,255,0.012)" stroke-width="1"/><line x1="0" y1="376" x2="600" y2="376" stroke="rgba(255,255,255,0.012)" stroke-width="1"/><line x1="0" y1="380" x2="600" y2="380" stroke="rgba(255,255,255,0.012)" stroke-width="1"/><line x1="0" y1="384" x2="600" y2="384" stroke="rgba(255,255,255,0.012)" stroke-width="1"/><line x1="0" y1="388" x2="600" y2="388" stroke="rgba(255,255,255,0.012)" stroke-width="1"/><line x1="0" y1="392" x2="600" y2="392" stroke="rgba(255,255,255,0.012)" stroke-width="1"/><line x1="0" y1="396" x2="600" y2="396" stroke="rgba(255,255,255,0.012)" stroke-width="1"/><line x1="0" y1="400" x2="600" y2="400" stroke="rgba(255,255,255,0.012)" stroke-width="1"/><line x1="0" y1="404" x2="600" y2="404" stroke="rgba(255,255,255,0.012)" stroke-width="1"/><line x1="0" y1="408" x2="600" y2="408" stroke="rgba(255,255,255,0.012)" stroke-width="1"/><line x1="0" y1="412" x2="600" y2="412" stroke="rgba(255,255,255,0.012)" stroke-width="1"/><line x1="0" y1="416" x2="600" y2="416" stroke="rgba(255,255,255,0.012)" stroke-width="1"/><line x1="0" y1="420" x2="600" y2="420" stroke="rgba(255,255,255,0.012)" stroke-width="1"/><line x1="0" y1="424" x2="600" y2="424" stroke="rgba(255,255,255,0.012)" stroke-width="1"/><line x1="0" y1="428" x2="600" y2="428" stroke="rgba(255,255,255,0.012)" stroke-width="1"/><line x1="0" y1="432" x2="600" y2="432" stroke="rgba(255,255,255,0.012)" stroke-width="1"/><line x1="0" y1="436" x2="600" y2="436" stroke="rgba(255,255,255,0.012)" stroke-width="1"/><line x1="0" y1="440" x2="600" y2="440" stroke="rgba(255,255,255,0.012)" stroke-width="1"/><line x1="0" y1="444" x2="600" y2="444" stroke="rgba(255,255,255,0.012)" stroke-width="1"/><line x1="0" y1="448" x2="600" y2="448" stroke="rgba(255,255,255,0.012)" stroke-width="1"/><line x1="0" y1="452" x2="600" y2="452" stroke="rgba(255,255,255,0.012)" stroke-width="1"/><line x1="0" y1="456" x2="600" y2="456" stroke="rgba(255,255,255,0.012)" stroke-width="1"/><line x1="0" y1="460" x2="600" y2="460" stroke="rgba(255,255,255,0.012)" stroke-width="1"/><line x1="0" y1="464" x2="600" y2="464" stroke="rgba(255,255,255,0.012)" stroke-width="1"/><line x1="0" y1="468" x2="600" y2="468" stroke="rgba(255,255,255,0.012)" stroke-width="1"/><line x1="0" y1="472" x2="600" y2="472" stroke="rgba(255,255,255,0.012)" stroke-width="1"/><line x1="0" y1="476" x2="600" y2="476" stroke="rgba(255,255,255,0.012)" stroke-width="1"/><line x1="0" y1="480" x2="600" y2="480" stroke="rgba(255,255,255,0.012)" stroke-width="1"/><line x1="0" y1="484" x2="600" y2="484" stroke="rgba(255,255,255,0.012)" stroke-width="1"/><line x1="0" y1="488" x2="600" y2="488" stroke="rgba(255,255,255,0.012)" stroke-width="1"/><line x1="0" y1="492" x2="600" y2="492" stroke="rgba(255,255,255,0.012)" stroke-width="1"/><line x1="0" y1="496" x2="600" y2="496" stroke="rgba(255,255,255,0.012)" stroke-width="1"/><line x1="0" y1="500" x2="600" y2="500" stroke="rgba(255,255,255,0.012)" stroke-width="1"/><line x1="0" y1="504" x2="600" y2="504" stroke="rgba(255,255,255,0.012)" stroke-width="1"/><line x1="0" y1="508" x2="600" y2="508" stroke="rgba(255,255,255,0.012)" stroke-width="1"/><line x1="0" y1="512" x2="600" y2="512" stroke="rgba(255,255,255,0.012)" stroke-width="1"/><line x1="0" y1="516" x2="600" y2="516" stroke="rgba(255,255,255,0.012)" stroke-width="1"/><line x1="0" y1="520" x2="600" y2="520" stroke="rgba(255,255,255,0.012)" stroke-width="1"/><line x1="0" y1="524" x2="600" y2="524" stroke="rgba(255,255,255,0.012)" stroke-width="1"/><line x1="0" y1="528" x2="600" y2="528" stroke="rgba(255,255,255,0.012)" stroke-width="1"/><line x1="0" y1="532" x2="600" y2="532" stroke="rgba(255,255,255,0.012)" stroke-width="1"/><line x1="0" y1="536" x2="600" y2="536" stroke="rgba(255,255,255,0.012)" stroke-width="1"/><line x1="0" y1="540" x2="600" y2="540" stroke="rgba(255,255,255,0.012)" stroke-width="1"/><line x1="0" y1="544" x2="600" y2="544" stroke="rgba(255,255,255,0.012)" stroke-width="1"/><line x1="0" y1="548" x2="600" y2="548" stroke="rgba(255,255,255,0.012)" stroke-width="1"/><line x1="0" y1="552" x2="600" y2="552" stroke="rgba(255,255,255,0.012)" stroke-width="1"/><line x1="0" y1="556" x2="600" y2="556" stroke="rgba(255,255,255,0.012)" stroke-width="1"/><line x1="0" y1="560" x2="600" y2="560" stroke="rgba(255,255,255,0.012)" stroke-width="1"/><line x1="0" y1="564" x2="600" y2="564" stroke="rgba(255,255,255,0.012)" stroke-width="1"/><line x1="0" y1="568" x2="600" y2="568" stroke="rgba(255,255,255,0.012)" stroke-width="1"/><line x1="0" y1="572" x2="600" y2="572" stroke="rgba(255,255,255,0.012)" stroke-width="1"/><line x1="0" y1="576" x2="600" y2="576" stroke="rgba(255,255,255,0.012)" stroke-width="1"/><line x1="0" y1="580" x2="600" y2="580" stroke="rgba(255,255,255,0.012)" stroke-width="1"/><line x1="0" y1="584" x2="600" y2="584" stroke="rgba(255,255,255,0.012)" stroke-width="1"/><line x1="0" y1="588" x2="600" y2="588" stroke="rgba(255,255,255,0.012)" stroke-width="1"/><line x1="0" y1="592" x2="600" y2="592" stroke="rgba(255,255,255,0.012)" stroke-width="1"/><line x1="0" y1="596" x2="600" y2="596" stroke="rgba(255,255,255,0.012)" stroke-width="1"/><line x1="0" y1="600" x2="600" y2="600" stroke="rgba(255,255,255,0.012)" stroke-width="1"/><line x1="0" y1="604" x2="600" y2="604" stroke="rgba(255,255,255,0.012)" stroke-width="1"/><line x1="0" y1="608" x2="600" y2="608" stroke="rgba(255,255,255,0.012)" stroke-width="1"/><line x1="0" y1="612" x2="600" y2="612" stroke="rgba(255,255,255,0.012)" stroke-width="1"/><line x1="0" y1="616" x2="600" y2="616" stroke="rgba(255,255,255,0.012)" stroke-width="1"/><line x1="0" y1="620" x2="600" y2="620" stroke="rgba(255,255,255,0.012)" stroke-width="1"/><line x1="0" y1="624" x2="600" y2="624" stroke="rgba(255,255,255,0.012)" stroke-width="1"/><line x1="0" y1="628" x2="600" y2="628" stroke="rgba(255,255,255,0.012)" stroke-width="1"/><line x1="0" y1="632" x2="600" y2="632" stroke="rgba(255,255,255,0.012)" stroke-width="1"/><line x1="0" y1="636" x2="600" y2="636" stroke="rgba(255,255,255,0.012)" stroke-width="1"/><line x1="0" y1="640" x2="600" y2="640" stroke="rgba(255,255,255,0.012)" stroke-width="1"/><line x1="0" y1="644" x2="600" y2="644" stroke="rgba(255,255,255,0.012)" stroke-width="1"/><line x1="0" y1="648" x2="600" y2="648" stroke="rgba(255,255,255,0.012)" stroke-width="1"/><line x1="0" y1="652" x2="600" y2="652" stroke="rgba(255,255,255,0.012)" stroke-width="1"/><line x1="0" y1="656" x2="600" y2="656" stroke="rgba(255,255,255,0.012)" stroke-width="1"/><line x1="0" y1="660" x2="600" y2="660" stroke="rgba(255,255,255,0.012)" stroke-width="1"/><line x1="0" y1="664" x2="600" y2="664" stroke="rgba(255,255,255,0.012)" stroke-width="1"/><line x1="0" y1="668" x2="600" y2="668" stroke="rgba(255,255,255,0.012)" stroke-width="1"/><line x1="0" y1="672" x2="600" y2="672" stroke="rgba(255,255,255,0.012)" stroke-width="1"/><line x1="0" y1="676" x2="600" y2="676" stroke="rgba(255,255,255,0.012)" stroke-width="1"/><line x1="0" y1="680" x2="600" y2="680" stroke="rgba(255,255,255,0.012)" stroke-width="1"/><line x1="0" y1="684" x2="600" y2="684" stroke="rgba(255,255,255,0.012)" stroke-width="1"/><line x1="0" y1="688" x2="600" y2="688" stroke="rgba(255,255,255,0.012)" stroke-width="1"/><line x1="0" y1="692" x2="600" y2="692" stroke="rgba(255,255,255,0.012)" stroke-width="1"/><line x1="0" y1="696" x2="600" y2="696" stroke="rgba(255,255,255,0.012)" stroke-width="1"/><line x1="0" y1="700" x2="600" y2="700" stroke="rgba(255,255,255,0.012)" stroke-width="1"/><line x1="0" y1="704" x2="600" y2="704" stroke="rgba(255,255,255,0.012)" stroke-width="1"/><line x1="0" y1="708" x2="600" y2="708" stroke="rgba(255,255,255,0.012)" stroke-width="1"/><line x1="0" y1="712" x2="600" y2="712" stroke="rgba(255,255,255,0.012)" stroke-width="1"/><line x1="0" y1="716" x2="600" y2="716" stroke="rgba(255,255,255,0.012)" stroke-width="1"/><line x1="0" y1="720" x2="600" y2="720" stroke="rgba(255,255,255,0.012)" stroke-width="1"/><line x1="0" y1="724" x2="600" y2="724" stroke="rgba(255,255,255,0.012)" stroke-width="1"/><line x1="0" y1="728" x2="600" y2="728" stroke="rgba(255,255,255,0.012)" stroke-width="1"/><line x1="0" y1="732" x2="600" y2="732" stroke="rgba(255,255,255,0.012)" stroke-width="1"/><line x1="0" y1="736" x2="600" y2="736" stroke="rgba(255,255,255,0.012)" stroke-width="1"/><line x1="0" y1="740" x2="600" y2="740" stroke="rgba(255,255,255,0.012)" stroke-width="1"/><line x1="0" y1="744" x2="600" y2="744" stroke="rgba(255,255,255,0.012)" stroke-width="1"/><line x1="0" y1="748" x2="600" y2="748" stroke="rgba(255,255,255,0.012)" stroke-width="1"/><line x1="0" y1="752" x2="600" y2="752" stroke="rgba(255,255,255,0.012)" stroke-width="1"/><line x1="0" y1="756" x2="600" y2="756" stroke="rgba(255,255,255,0.012)" stroke-width="1"/><line x1="0" y1="760" x2="600" y2="760" stroke="rgba(255,255,255,0.012)" stroke-width="1"/><line x1="0" y1="764" x2="600" y2="764" stroke="rgba(255,255,255,0.012)" stroke-width="1"/><line x1="0" y1="768" x2="600" y2="768" stroke="rgba(255,255,255,0.012)" stroke-width="1"/><line x1="0" y1="772" x2="600" y2="772" stroke="rgba(255,255,255,0.012)" stroke-width="1"/><line x1="0" y1="776" x2="600" y2="776" stroke="rgba(255,255,255,0.012)" stroke-width="1"/><line x1="0" y1="780" x2="600" y2="780" stroke="rgba(255,255,255,0.012)" stroke-width="1"/><line x1="0" y1="784" x2="600" y2="784" stroke="rgba(255,255,255,0.012)" stroke-width="1"/><line x1="0" y1="788" x2="600" y2="788" stroke="rgba(255,255,255,0.012)" stroke-width="1"/><line x1="0" y1="792" x2="600" y2="792" stroke="rgba(255,255,255,0.012)" stroke-width="1"/><line x1="0" y1="796" x2="600" y2="796" stroke="rgba(255,255,255,0.012)" stroke-width="1"/>

<!-- T blocks -->
<rect x="78" y="43" width="44" height="44" rx="4" fill="#F44336"/><rect x="81" y="46" width="38" height="8" rx="2" fill="#ff7a6d" opacity="0.55"/><rect x="81" y="79" width="38" height="6" rx="2" fill="#c71609" opacity="0.45"/><rect x="81" y="46" width="5" height="38" rx="2" fill="#ff7a6d" opacity="0.35"/><rect x="78" y="93" width="44" height="44" rx="4" fill="#2196F3"/><rect x="81" y="96" width="38" height="8" rx="2" fill="#58cdff" opacity="0.55"/><rect x="81" y="129" width="38" height="6" rx="2" fill="#0069c6" opacity="0.45"/><rect x="81" y="96" width="5" height="38" rx="2" fill="#58cdff" opacity="0.35"/><rect x="128" y="43" width="44" height="44" rx="4" fill="#F44336"/><rect x="131" y="46" width="38" height="8" rx="2" fill="#ff7a6d" opacity="0.55"/><rect x="131" y="79" width="38" height="6" rx="2" fill="#c71609" opacity="0.45"/><rect x="131" y="46" width="5" height="38" rx="2" fill="#ff7a6d" opacity="0.35"/><rect x="128" y="93" width="44" height="44" rx="4" fill="#2196F3"/><rect x="131" y="96" width="38" height="8" rx="2" fill="#58cdff" opacity="0.55"/><rect x="131" y="129" width="38" height="6" rx="2" fill="#0069c6" opacity="0.45"/><rect x="131" y="96" width="5" height="38" rx="2" fill="#58cdff" opacity="0.35"/><rect x="178" y="43" width="44" height="44" rx="4" fill="#00BCD4"/><rect x="181" y="46" width="38" height="8" rx="2" fill="#37f3ff" opacity="0.55"/><rect x="181" y="79" width="38" height="6" rx="2" fill="#008fa7" opacity="0.45"/><rect x="181" y="46" width="5" height="38" rx="2" fill="#37f3ff" opacity="0.35"/><rect x="178" y="93" width="44" height="44" rx="4" fill="#E91E63"/><rect x="181" y="96" width="38" height="8" rx="2" fill="#ff559a" opacity="0.55"/><rect x="181" y="129" width="38" height="6" rx="2" fill="#bc0036" opacity="0.45"/><rect x="181" y="96" width="5" height="38" rx="2" fill="#ff559a" opacity="0.35"/><rect x="228" y="43" width="44" height="44" rx="4" fill="#00BCD4"/><rect x="231" y="46" width="38" height="8" rx="2" fill="#37f3ff" opacity="0.55"/><rect x="231" y="79" width="38" height="6" rx="2" fill="#008fa7" opacity="0.45"/><rect x="231" y="46" width="5" height="38" rx="2" fill="#37f3ff" opacity="0.35"/><rect x="228" y="93" width="44" height="44" rx="4" fill="#E91E63"/><rect x="231" y="96" width="38" height="8" rx="2" fill="#ff559a" opacity="0.55"/><rect x="231" y="129" width="38" height="6" rx="2" fill="#bc0036" opacity="0.45"/><rect x="231" y="96" width="5" height="38" rx="2" fill="#ff559a" opacity="0.35"/><rect x="278" y="43" width="44" height="44" rx="4" fill="#4CAF50"/><rect x="281" y="46" width="38" height="8" rx="2" fill="#83e687" opacity="0.55"/><rect x="281" y="79" width="38" height="6" rx="2" fill="#1f8223" opacity="0.45"/><rect x="281" y="46" width="5" height="38" rx="2" fill="#83e687" opacity="0.35"/><rect x="278" y="93" width="44" height="44" rx="4" fill="#CDDC39"/><rect x="281" y="96" width="38" height="8" rx="2" fill="#ffff70" opacity="0.55"/><rect x="281" y="129" width="38" height="6" rx="2" fill="#a0af0c" opacity="0.45"/><rect x="281" y="96" width="5" height="38" rx="2" fill="#ffff70" opacity="0.35"/><rect x="328" y="43" width="44" height="44" rx="4" fill="#4CAF50"/><rect x="331" y="46" width="38" height="8" rx="2" fill="#83e687" opacity="0.55"/><rect x="331" y="79" width="38" height="6" rx="2" fill="#1f8223" opacity="0.45"/><rect x="331" y="46" width="5" height="38" rx="2" fill="#83e687" opacity="0.35"/><rect x="328" y="93" width="44" height="44" rx="4" fill="#CDDC39"/><rect x="331" y="96" width="38" height="8" rx="2" fill="#ffff70" opacity="0.55"/><rect x="331" y="129" width="38" height="6" rx="2" fill="#a0af0c" opacity="0.45"/><rect x="331" y="96" width="5" height="38" rx="2" fill="#ffff70" opacity="0.35"/><rect x="378" y="43" width="44" height="44" rx="4" fill="#FF9800"/><rect x="381" y="46" width="38" height="8" rx="2" fill="#ffcf37" opacity="0.55"/><rect x="381" y="79" width="38" height="6" rx="2" fill="#d26b00" opacity="0.45"/><rect x="381" y="46" width="5" height="38" rx="2" fill="#ffcf37" opacity="0.35"/><rect x="378" y="93" width="44" height="44" rx="4" fill="#FF5722"/><rect x="381" y="96" width="38" height="8" rx="2" fill="#ff8e59" opacity="0.55"/><rect x="381" y="129" width="38" height="6" rx="2" fill="#d22a00" opacity="0.45"/><rect x="381" y="96" width="5" height="38" rx="2" fill="#ff8e59" opacity="0.35"/><rect x="428" y="43" width="44" height="44" rx="4" fill="#FF9800"/><rect x="431" y="46" width="38" height="8" rx="2" fill="#ffcf37" opacity="0.55"/><rect x="431" y="79" width="38" height="6" rx="2" fill="#d26b00" opacity="0.45"/><rect x="431" y="46" width="5" height="38" rx="2" fill="#ffcf37" opacity="0.35"/><rect x="428" y="93" width="44" height="44" rx="4" fill="#FF5722"/><rect x="431" y="96" width="38" height="8" rx="2" fill="#ff8e59" opacity="0.55"/><rect x="431" y="129" width="38" height="6" rx="2" fill="#d22a00" opacity="0.45"/><rect x="431" y="96" width="5" height="38" rx="2" fill="#ff8e59" opacity="0.35"/><rect x="478" y="43" width="44" height="44" rx="4" fill="#E040FB"/><rect x="481" y="46" width="38" height="8" rx="2" fill="#ff77ff" opacity="0.55"/><rect x="481" y="79" width="38" height="6" rx="2" fill="#b313ce" opacity="0.45"/><rect x="481" y="46" width="5" height="38" rx="2" fill="#ff77ff" opacity="0.35"/><rect x="478" y="93" width="44" height="44" rx="4" fill="#3F51B5"/><rect x="481" y="96" width="38" height="8" rx="2" fill="#7688ec" opacity="0.55"/><rect x="481" y="129" width="38" height="6" rx="2" fill="#122488" opacity="0.45"/><rect x="481" y="96" width="5" height="38" rx="2" fill="#7688ec" opacity="0.35"/><rect x="228" y="143" width="44" height="44" rx="4" fill="#00BCD4"/><rect x="231" y="146" width="38" height="8" rx="2" fill="#37f3ff" opacity="0.55"/><rect x="231" y="179" width="38" height="6" rx="2" fill="#008fa7" opacity="0.45"/><rect x="231" y="146" width="5" height="38" rx="2" fill="#37f3ff" opacity="0.35"/><rect x="278" y="143" width="44" height="44" rx="4" fill="#00BCD4"/><rect x="281" y="146" width="38" height="8" rx="2" fill="#37f3ff" opacity="0.55"/><rect x="281" y="179" width="38" height="6" rx="2" fill="#008fa7" opacity="0.45"/><rect x="281" y="146" width="5" height="38" rx="2" fill="#37f3ff" opacity="0.35"/><rect x="328" y="143" width="44" height="44" rx="4" fill="#F44336"/><rect x="331" y="146" width="38" height="8" rx="2" fill="#ff7a6d" opacity="0.55"/><rect x="331" y="179" width="38" height="6" rx="2" fill="#c71609" opacity="0.45"/><rect x="331" y="146" width="5" height="38" rx="2" fill="#ff7a6d" opacity="0.35"/><rect x="228" y="193" width="44" height="44" rx="4" fill="#9C27B0"/><rect x="231" y="196" width="38" height="8" rx="2" fill="#d35ee7" opacity="0.55"/><rect x="231" y="229" width="38" height="6" rx="2" fill="#6f0083" opacity="0.45"/><rect x="231" y="196" width="5" height="38" rx="2" fill="#d35ee7" opacity="0.35"/><rect x="278" y="193" width="44" height="44" rx="4" fill="#FF9800"/><rect x="281" y="196" width="38" height="8" rx="2" fill="#ffcf37" opacity="0.55"/><rect x="281" y="229" width="38" height="6" rx="2" fill="#d26b00" opacity="0.45"/><rect x="281" y="196" width="5" height="38" rx="2" fill="#ffcf37" opacity="0.35"/><rect x="328" y="193" width="44" height="44" rx="4" fill="#F44336"/><rect x="331" y="196" width="38" height="8" rx="2" fill="#ff7a6d" opacity="0.55"/><rect x="331" y="229" width="38" height="6" rx="2" fill="#c71609" opacity="0.45"/><rect x="331" y="196" width="5" height="38" rx="2" fill="#ff7a6d" opacity="0.35"/><rect x="228" y="243" width="44" height="44" rx="4" fill="#9C27B0"/><rect x="231" y="246" width="38" height="8" rx="2" fill="#d35ee7" opacity="0.55"/><rect x="231" y="279" width="38" height="6" rx="2" fill="#6f0083" opacity="0.45"/><rect x="231" y="246" width="5" height="38" rx="2" fill="#d35ee7" opacity="0.35"/><rect x="278" y="243" width="44" height="44" rx="4" fill="#FF9800"/><rect x="281" y="246" width="38" height="8" rx="2" fill="#ffcf37" opacity="0.55"/><rect x="281" y="279" width="38" height="6" rx="2" fill="#d26b00" opacity="0.45"/><rect x="281" y="246" width="5" height="38" rx="2" fill="#ffcf37" opacity="0.35"/><rect x="328" y="243" width="44" height="44" rx="4" fill="#FFEB3B"/><rect x="331" y="246" width="38" height="8" rx="2" fill="#ffff72" opacity="0.55"/><rect x="331" y="279" width="38" height="6" rx="2" fill="#d2be0e" opacity="0.45"/><rect x="331" y="246" width="5" height="38" rx="2" fill="#ffff72" opacity="0.35"/><rect x="228" y="293" width="44" height="44" rx="4" fill="#4CAF50"/><rect x="231" y="296" width="38" height="8" rx="2" fill="#83e687" opacity="0.55"/><rect x="231" y="329" width="38" height="6" rx="2" fill="#1f8223" opacity="0.45"/><rect x="231" y="296" width="5" height="38" rx="2" fill="#83e687" opacity="0.35"/><rect x="278" y="293" width="44" height="44" rx="4" fill="#4CAF50"/><rect x="281" y="296" width="38" height="8" rx="2" fill="#83e687" opacity="0.55"/><rect x="281" y="329" width="38" height="6" rx="2" fill="#1f8223" opacity="0.45"/><rect x="281" y="296" width="5" height="38" rx="2" fill="#83e687" opacity="0.35"/><rect x="328" y="293" width="44" height="44" rx="4" fill="#FFEB3B"/><rect x="331" y="296" width="38" height="8" rx="2" fill="#ffff72" opacity="0.55"/><rect x="331" y="329" width="38" height="6" rx="2" fill="#d2be0e" opacity="0.45"/><rect x="331" y="296" width="5" height="38" rx="2" fill="#ffff72" opacity="0.35"/><rect x="228" y="343" width="44" height="44" rx="4" fill="#3F51B5"/><rect x="231" y="346" width="38" height="8" rx="2" fill="#7688ec" opacity="0.55"/><rect x="231" y="379" width="38" height="6" rx="2" fill="#122488" opacity="0.45"/><rect x="231" y="346" width="5" height="38" rx="2" fill="#7688ec" opacity="0.35"/><rect x="278" y="343" width="44" height="44" rx="4" fill="#3F51B5"/><rect x="281" y="346" width="38" height="8" rx="2" fill="#7688ec" opacity="0.55"/><rect x="281" y="379" width="38" height="6" rx="2" fill="#122488" opacity="0.45"/><rect x="281" y="346" width="5" height="38" rx="2" fill="#7688ec" opacity="0.35"/><rect x="328" y="343" width="44" height="44" rx="4" fill="#FF5722"/><rect x="331" y="346" width="38" height="8" rx="2" fill="#ff8e59" opacity="0.55"/><rect x="331" y="379" width="38" height="6" rx="2" fill="#d22a00" opacity="0.45"/><rect x="331" y="346" width="5" height="38" rx="2" fill="#ff8e59" opacity="0.35"/><rect x="228" y="393" width="44" height="44" rx="4" fill="#E040FB"/><rect x="231" y="396" width="38" height="8" rx="2" fill="#ff77ff" opacity="0.55"/><rect x="231" y="429" width="38" height="6" rx="2" fill="#b313ce" opacity="0.45"/><rect x="231" y="396" width="5" height="38" rx="2" fill="#ff77ff" opacity="0.35"/><rect x="278" y="393" width="44" height="44" rx="4" fill="#2196F3"/><rect x="281" y="396" width="38" height="8" rx="2" fill="#58cdff" opacity="0.55"/><rect x="281" y="429" width="38" height="6" rx="2" fill="#0069c6" opacity="0.45"/><rect x="281" y="396" width="5" height="38" rx="2" fill="#58cdff" opacity="0.35"/><rect x="328" y="393" width="44" height="44" rx="4" fill="#FF5722"/><rect x="331" y="396" width="38" height="8" rx="2" fill="#ff8e59" opacity="0.55"/><rect x="331" y="429" width="38" height="6" rx="2" fill="#d22a00" opacity="0.45"/><rect x="331" y="396" width="5" height="38" rx="2" fill="#ff8e59" opacity="0.35"/><rect x="228" y="443" width="44" height="44" rx="4" fill="#E040FB"/><rect x="231" y="446" width="38" height="8" rx="2" fill="#ff77ff" opacity="0.55"/><rect x="231" y="479" width="38" height="6" rx="2" fill="#b313ce" opacity="0.45"/><rect x="231" y="446" width="5" height="38" rx="2" fill="#ff77ff" opacity="0.35"/><rect x="278" y="443" width="44" height="44" rx="4" fill="#2196F3"/><rect x="281" y="446" width="38" height="8" rx="2" fill="#58cdff" opacity="0.55"/><rect x="281" y="479" width="38" height="6" rx="2" fill="#0069c6" opacity="0.45"/><rect x="281" y="446" width="5" height="38" rx="2" fill="#58cdff" opacity="0.35"/><rect x="328" y="443" width="44" height="44" rx="4" fill="#E91E63"/><rect x="331" y="446" width="38" height="8" rx="2" fill="#ff559a" opacity="0.55"/><rect x="331" y="479" width="38" height="6" rx="2" fill="#bc0036" opacity="0.45"/><rect x="331" y="446" width="5" height="38" rx="2" fill="#ff559a" opacity="0.35"/><rect x="228" y="493" width="44" height="44" rx="4" fill="#CDDC39"/><rect x="231" y="496" width="38" height="8" rx="2" fill="#ffff70" opacity="0.55"/><rect x="231" y="529" width="38" height="6" rx="2" fill="#a0af0c" opacity="0.45"/><rect x="231" y="496" width="5" height="38" rx="2" fill="#ffff70" opacity="0.35"/><rect x="278" y="493" width="44" height="44" rx="4" fill="#CDDC39"/><rect x="281" y="496" width="38" height="8" rx="2" fill="#ffff70" opacity="0.55"/><rect x="281" y="529" width="38" height="6" rx="2" fill="#a0af0c" opacity="0.45"/><rect x="281" y="496" width="5" height="38" rx="2" fill="#ffff70" opacity="0.35"/><rect x="328" y="493" width="44" height="44" rx="4" fill="#E91E63"/><rect x="331" y="496" width="38" height="8" rx="2" fill="#ff559a" opacity="0.55"/><rect x="331" y="529" width="38" height="6" rx="2" fill="#bc0036" opacity="0.45"/><rect x="331" y="496" width="5" height="38" rx="2" fill="#ff559a" opacity="0.35"/><rect x="228" y="543" width="44" height="44" rx="4" fill="#F44336"/><rect x="231" y="546" width="38" height="8" rx="2" fill="#ff7a6d" opacity="0.55"/><rect x="231" y="579" width="38" height="6" rx="2" fill="#c71609" opacity="0.45"/><rect x="231" y="546" width="5" height="38" rx="2" fill="#ff7a6d" opacity="0.35"/><rect x="278" y="543" width="44" height="44" rx="4" fill="#F44336"/><rect x="281" y="546" width="38" height="8" rx="2" fill="#ff7a6d" opacity="0.55"/><rect x="281" y="579" width="38" height="6" rx="2" fill="#c71609" opacity="0.45"/><rect x="281" y="546" width="5" height="38" rx="2" fill="#ff7a6d" opacity="0.35"/><rect x="328" y="543" width="44" height="44" rx="4" fill="#4CAF50"/><rect x="331" y="546" width="38" height="8" rx="2" fill="#83e687" opacity="0.55"/><rect x="331" y="579" width="38" height="6" rx="2" fill="#1f8223" opacity="0.45"/><rect x="331" y="546" width="5" height="38" rx="2" fill="#83e687" opacity="0.35"/><rect x="228" y="593" width="44" height="44" rx="4" fill="#00BCD4"/><rect x="231" y="596" width="38" height="8" rx="2" fill="#37f3ff" opacity="0.55"/><rect x="231" y="629" width="38" height="6" rx="2" fill="#008fa7" opacity="0.45"/><rect x="231" y="596" width="5" height="38" rx="2" fill="#37f3ff" opacity="0.35"/><rect x="278" y="593" width="44" height="44" rx="4" fill="#FF9800"/><rect x="281" y="596" width="38" height="8" rx="2" fill="#ffcf37" opacity="0.55"/><rect x="281" y="629" width="38" height="6" rx="2" fill="#d26b00" opacity="0.45"/><rect x="281" y="596" width="5" height="38" rx="2" fill="#ffcf37" opacity="0.35"/><rect x="328" y="593" width="44" height="44" rx="4" fill="#4CAF50"/><rect x="331" y="596" width="38" height="8" rx="2" fill="#83e687" opacity="0.55"/><rect x="331" y="629" width="38" height="6" rx="2" fill="#1f8223" opacity="0.45"/><rect x="331" y="596" width="5" height="38" rx="2" fill="#83e687" opacity="0.35"/>

<!-- Bottom fade -->
<rect width="600" height="800" fill="url(#fade)"/>

<!-- Game name -->
<text x="50%" y="748" font-family="'Courier New', monospace" font-size="54" font-weight="bold" fill="white" text-anchor="middle" letter-spacing="10">TETRIS</text>
<text x="50%" y="778" font-family="'Courier New', monospace" font-size="13" fill="rgba(255,255,255,0.38)" text-anchor="middle" letter-spacing="5">ONECHAIN</text>
</svg>