<svg xmlns="http://www.w3.org/2000/svg" width="600" height="800" viewBox="0 0 600 800" shape-rendering="crispEdges">
<defs>
  <linearGradient id="bg" x1="0" y1="0" x2="0.15" y2="1">
    <stop offset="0%" stop-color="#1a0900"/>
    <stop offset="100%" stop-color="#b53d00"/>
  </linearGradient>
  <linearGradient id="fade" x1="0" y1="0" x2="0" y2="1">
    <stop offset="40%" stop-color="rgba(0,0,0,0)"/>
    <stop offset="100%" stop-color="rgba(0,0,0,0.92)"/>
  </linearGradient>
</defs>
<rect width="600" height="800" fill="url(#bg)"/>
<rect x="43" y="80" width="514" height="514" fill="#bbada0" rx="10"/><rect x="53" y="90" width="116" height="116" fill="#eee4da" rx="5"/><text x="111" y="160" font-family="'Courier New', monospace" font-size="38" font-weight="bold" fill="#776e65" text-anchor="middle">2</text><rect x="179" y="90" width="116" height="116" fill="#ede0c8" rx="5"/><text x="237" y="160" font-family="'Courier New', monospace" font-size="38" font-weight="bold" fill="#776e65" text-anchor="middle">4</text><rect x="305" y="90" width="116" height="116" fill="#f2b179" rx="5"/><text x="363" y="160" font-family="'Courier New', monospace" font-size="38" font-weight="bold" fill="#f9f6f2" text-anchor="middle">8</text><rect x="431" y="90" width="116" height="116" fill="#f59563" rx="5"/><text x="489" y="160" font-family="'Courier New', monospace" font-size="38" font-weight="bold" fill="#f9f6f2" text-anchor="middle">16</text><rect x="53" y="216" width="116" height="116" fill="#f67c5f" rx="5"/><text x="111" y="286" font-family="'Courier New', monospace" font-size="38" font-weight="bold" fill="#f9f6f2" text-anchor="middle">32</text><rect x="179" y="216" width="116" height="116" fill="#f65e3b" rx="5"/><text x="237" y="286" font-family="'Courier New', monospace" font-size="38" font-weight="bold" fill="#f9f6f2" text-anchor="middle">64</text><rect x="305" y="216" width="116" height="116" fill="#edcf72" rx="5"/><text x="363" y="284" font-family="'Courier New', monospace" font-size="30" font-weight="bold" fill="#f9f6f2" text-anchor="middle">128</text><rect x="431" y="216" width="116" height="116" fill="#edcc61" rx="5"/><text x="489" y="284" font-family="'Courier New', monospace" font-size="30" font-weight="bold" fill="#f9f6f2" text-anchor="middle">256</text><rect x="53" y="342" width="116" height="116" fill="#edc850" rx="5"/><text x="111" y="410" font-family="'Courier New', monospace" font-size="30" font-weight="bold" fill="#f9f6f2" text-anchor="middle">512</text><rect x="179" y="342" width="116" height="116" fill="#edc53f" rx="5"/><text x="237" y="408" font-family="'Courier New', monospace" font-size="24" font-weight="bold" fill="#f9f6f2" text-anchor="middle">1024</text><rect x="305" y="342" width="116" height="116" fill="#edc22e" rx="5"/><text x="363" y="408" font-family="'Courier New', monospace" font-size="24" font-weight="bold" fill="#f9f6f2" text-anchor="middle">2048</text><rect x="431" y="342" width="116" height="116" fill="#ede0c8" rx="5"/><text x="489" y="412" font-family="'Courier New', monospace" font-size="38" font-weight="bold" fill="#776e65" text-anchor="middle">4</text><rect x="53" y="468" width="116" height="116" fill="#f2b179" rx="5"/><text x="111" y="538" font-family="'Courier New', monospace" font-size="38" font-weight="bold" fill="#f9f6f2" text-anchor="middle">8</text><rect x="179" y="468" width="116" height="116" fill="#f59563" rx="5"/><text x="237" y="538" font-family="'Courier New', monospace" font-size="38" font-weight="bold" fill="#f9f6f2" text-anchor="middle">16</text><rect x="305" y="468" width="116" height="116" fill="#f67c5f" rx="5"/><text x="363" y="538" font-family="'Courier New', monospace" font-size="38" font-weight="bold" fill="#f9f6f2" text-anchor="middle">32</text><rect x="431" y="468" width="116" height="116" fill="#f65e3b" rx="5"/><text x="489" y="538" font-family="'Courier New', monospace" font-size="38" font-weight="bold" fill="#f9f6f2" text-anchor="middle">64</text>
<rect width="600" height="800" fill="url(#fade)"/>
<text x="44" y="740" font-family="'Courier New', monospace" font-size="52" font-weight="bold" fill="#FFD600">2048</text>
</svg>