<svg xmlns="http://www.w3.org/2000/svg" width="600" height="800" viewBox="0 0 600 800" shape-rendering="crispEdges">
<defs>
  <linearGradient id="bg" x1="0" y1="0" x2="0.15" y2="1">
    <stop offset="0%" stop-color="#3a0030"/>
    <stop offset="100%" stop-color="#cc0066"/>
  </linearGradient>
  <linearGradient id="fade" x1="0" y1="0" x2="0" y2="1">
    <stop offset="40%" stop-color="rgba(0,0,0,0)"/>
    <stop offset="100%" stop-color="rgba(0,0,0,0.92)"/>
  </linearGradient>
</defs>
<rect width="600" height="800" fill="url(#bg)"/>
<circle cx="300" cy="185" r="95" fill="white" fill-opacity="0.08" stroke="white" stroke-width="1.5" stroke-opacity="0.5"/><circle cx="273" cy="155" r="19" fill="white" opacity="0.32"/><circle cx="333" cy="149" r="10" fill="white" opacity="0.22"/><circle cx="155" cy="295" r="70" fill="white" fill-opacity="0.08" stroke="white" stroke-width="1.5" stroke-opacity="0.5"/><circle cx="135" cy="273" r="14" fill="white" opacity="0.32"/><circle cx="180" cy="268" r="7" fill="white" opacity="0.22"/><circle cx="448" cy="248" r="80" fill="white" fill-opacity="0.08" stroke="white" stroke-width="1.5" stroke-opacity="0.5"/><circle cx="426" cy="222" r="16" fill="white" opacity="0.32"/><circle cx="476" cy="218" r="8" fill="white" opacity="0.22"/><circle cx="268" cy="398" r="54" fill="white" fill-opacity="0.08" stroke="white" stroke-width="1.5" stroke-opacity="0.5"/><circle cx="253" cy="381" r="11" fill="white" opacity="0.32"/><circle cx="287" cy="377" r="5" fill="white" opacity="0.22"/><circle cx="100" cy="188" r="48" fill="white" fill-opacity="0.08" stroke="white" stroke-width="1.5" stroke-opacity="0.5"/><circle cx="87" cy="173" r="10" fill="white" opacity="0.32"/><circle cx="117" cy="170" r="5" fill="white" opacity="0.22"/><circle cx="492" cy="390" r="60" fill="white" fill-opacity="0.08" stroke="white" stroke-width="1.5" stroke-opacity="0.5"/><circle cx="475" cy="371" r="12" fill="white" opacity="0.32"/><circle cx="513" cy="367" r="6" fill="white" opacity="0.22"/><circle cx="358" cy="492" r="44" fill="white" fill-opacity="0.08" stroke="white" stroke-width="1.5" stroke-opacity="0.5"/><circle cx="346" cy="478" r="9" fill="white" opacity="0.32"/><circle cx="373" cy="475" r="4" fill="white" opacity="0.22"/><circle cx="182" cy="462" r="38" fill="white" fill-opacity="0.08" stroke="white" stroke-width="1.5" stroke-opacity="0.5"/><circle cx="171" cy="450" r="8" fill="white" opacity="0.32"/><circle cx="195" cy="448" r="4" fill="white" opacity="0.22"/><circle cx="80" cy="380" r="33" fill="white" fill-opacity="0.08" stroke="white" stroke-width="1.5" stroke-opacity="0.5"/><circle cx="71" cy="369" r="7" fill="white" opacity="0.32"/><circle cx="92" cy="367" r="3" fill="white" opacity="0.22"/><circle cx="528" cy="152" r="40" fill="white" fill-opacity="0.08" stroke="white" stroke-width="1.5" stroke-opacity="0.5"/><circle cx="517" cy="139" r="8" fill="white" opacity="0.32"/><circle cx="542" cy="137" r="4" fill="white" opacity="0.22"/><circle cx="60" cy="102" r="27" fill="white" fill-opacity="0.08" stroke="white" stroke-width="1.5" stroke-opacity="0.5"/><circle cx="52" cy="93" r="5" fill="white" opacity="0.32"/><circle cx="69" cy="92" r="3" fill="white" opacity="0.22"/><circle cx="412" cy="122" r="45" fill="white" fill-opacity="0.08" stroke="white" stroke-width="1.5" stroke-opacity="0.5"/><circle cx="399" cy="108" r="9" fill="white" opacity="0.32"/><circle cx="428" cy="105" r="4" fill="white" opacity="0.22"/><circle cx="240" cy="310" r="30" fill="white" fill-opacity="0.08" stroke="white" stroke-width="1.5" stroke-opacity="0.5"/><circle cx="232" cy="300" r="6" fill="white" opacity="0.32"/><circle cx="250" cy="299" r="3" fill="white" opacity="0.22"/><circle cx="370" cy="340" r="26" fill="white" fill-opacity="0.08" stroke="white" stroke-width="1.5" stroke-opacity="0.5"/><circle cx="363" cy="332" r="5" fill="white" opacity="0.32"/><circle cx="379" cy="330" r="3" fill="white" opacity="0.22"/><circle cx="145" cy="520" r="22" fill="white" fill-opacity="0.08" stroke="white" stroke-width="1.5" stroke-opacity="0.5"/><circle cx="139" cy="513" r="4" fill="white" opacity="0.32"/><circle cx="153" cy="512" r="2" fill="white" opacity="0.22"/><circle cx="500" cy="520" r="28" fill="white" fill-opacity="0.08" stroke="white" stroke-width="1.5" stroke-opacity="0.5"/><circle cx="492" cy="511" r="6" fill="white" opacity="0.32"/><circle cx="510" cy="509" r="3" fill="white" opacity="0.22"/><line x1="221.2" y1="152.0" x2="242.8" y2="152.0" stroke="white" stroke-width="2.5" opacity="0.6" stroke-linecap="round"/><line x1="216.5" y1="163.5" x2="231.7" y2="178.7" stroke="white" stroke-width="2.5" opacity="0.6" stroke-linecap="round"/><line x1="205.0" y1="168.2" x2="205.0" y2="189.8" stroke="white" stroke-width="2.5" opacity="0.6" stroke-linecap="round"/><line x1="193.5" y1="163.5" x2="178.3" y2="178.7" stroke="white" stroke-width="2.5" opacity="0.6" stroke-linecap="round"/><line x1="188.8" y1="152.0" x2="167.2" y2="152.0" stroke="white" stroke-width="2.5" opacity="0.6" stroke-linecap="round"/><line x1="193.5" y1="140.5" x2="178.3" y2="125.3" stroke="white" stroke-width="2.5" opacity="0.6" stroke-linecap="round"/><line x1="205.0" y1="135.8" x2="205.0" y2="114.2" stroke="white" stroke-width="2.5" opacity="0.6" stroke-linecap="round"/><line x1="216.5" y1="140.5" x2="231.7" y2="125.3" stroke="white" stroke-width="2.5" opacity="0.6" stroke-linecap="round"/><line x1="501.1" y1="322.0" x2="518.5" y2="322.0" stroke="white" stroke-width="2.5" opacity="0.6" stroke-linecap="round"/><line x1="497.2" y1="331.2" x2="509.5" y2="343.5" stroke="white" stroke-width="2.5" opacity="0.6" stroke-linecap="round"/><line x1="488.0" y1="335.1" x2="488.0" y2="352.4" stroke="white" stroke-width="2.5" opacity="0.6" stroke-linecap="round"/><line x1="478.8" y1="331.2" x2="466.5" y2="343.5" stroke="white" stroke-width="2.5" opacity="0.6" stroke-linecap="round"/><line x1="474.9" y1="322.0" x2="457.6" y2="322.0" stroke="white" stroke-width="2.5" opacity="0.6" stroke-linecap="round"/><line x1="478.8" y1="312.8" x2="466.5" y2="300.5" stroke="white" stroke-width="2.5" opacity="0.6" stroke-linecap="round"/><line x1="488.0" y1="308.9" x2="488.0" y2="291.6" stroke="white" stroke-width="2.5" opacity="0.6" stroke-linecap="round"/><line x1="497.2" y1="312.8" x2="509.5" y2="300.5" stroke="white" stroke-width="2.5" opacity="0.6" stroke-linecap="round"/><line x1="128.8" y1="318.0" x2="143.2" y2="318.0" stroke="white" stroke-width="2.5" opacity="0.6" stroke-linecap="round"/><line x1="125.6" y1="325.6" x2="135.8" y2="335.8" stroke="white" stroke-width="2.5" opacity="0.6" stroke-linecap="round"/><line x1="118.0" y1="328.8" x2="118.0" y2="343.2" stroke="white" stroke-width="2.5" opacity="0.6" stroke-linecap="round"/><line x1="110.4" y1="325.6" x2="100.2" y2="335.8" stroke="white" stroke-width="2.5" opacity="0.6" stroke-linecap="round"/><line x1="107.2" y1="318.0" x2="92.8" y2="318.0" stroke="white" stroke-width="2.5" opacity="0.6" stroke-linecap="round"/><line x1="110.4" y1="310.4" x2="100.2" y2="300.2" stroke="white" stroke-width="2.5" opacity="0.6" stroke-linecap="round"/><line x1="118.0" y1="307.2" x2="118.0" y2="292.8" stroke="white" stroke-width="2.5" opacity="0.6" stroke-linecap="round"/><line x1="125.6" y1="310.4" x2="135.8" y2="300.2" stroke="white" stroke-width="2.5" opacity="0.6" stroke-linecap="round"/>
<rect width="600" height="800" fill="url(#fade)"/>
<text x="44" y="740" font-family="'Courier New', monospace" font-size="52" font-weight="bold" fill="#ffffff">BUBBLE POP</text>
</svg>