<svg xmlns="http://www.w3.org/2000/svg" width="600" height="800" viewBox="0 0 600 800" shape-rendering="crispEdges">
<defs>
  <linearGradient id="bg" x1="0" y1="0" x2="0.15" y2="1">
    <stop offset="0%" stop-color="#020f06"/>
    <stop offset="100%" stop-color="#003d15"/>
  </linearGradient>
  <linearGradient id="fade" x1="0" y1="0" x2="0" y2="1">
    <stop offset="40%" stop-color="rgba(0,0,0,0)"/>
    <stop offset="100%" stop-color="rgba(0,0,0,0.92)"/>
  </linearGradient>
</defs>
<rect width="600" height="800" fill="url(#bg)"/>
<circle cx="485" cy="275" r="1.5" fill="white" opacity="0.26"/><circle cx="358" cy="146" r="1.5" fill="white" opacity="0.20"/><circle cx="383" cy="494" r="1.5" fill="white" opacity="0.17"/><circle cx="471" cy="233" r="1.5" fill="white" opacity="0.24"/><circle cx="148" cy="450" r="1.5" fill="white" opacity="0.19"/><circle cx="347" cy="215" r="1.5" fill="white" opacity="0.11"/><circle cx="204" cy="76" r="1.5" fill="white" opacity="0.23"/><circle cx="345" cy="414" r="1.5" fill="white" opacity="0.30"/><circle cx="89" cy="19" r="1.5" fill="white" opacity="0.33"/><circle cx="521" cy="228" r="1.5" fill="white" opacity="0.12"/><circle cx="433" cy="454" r="1.5" fill="white" opacity="0.13"/><circle cx="433" cy="138" r="1.5" fill="white" opacity="0.23"/><circle cx="571" cy="167" r="1.5" fill="white" opacity="0.34"/><circle cx="52" cy="568" r="1.5" fill="white" opacity="0.14"/><circle cx="85" cy="410" r="1.5" fill="white" opacity="0.25"/><circle cx="480" cy="488" r="1.5" fill="white" opacity="0.25"/><circle cx="554" cy="31" r="1.5" fill="white" opacity="0.26"/><circle cx="84" cy="196" r="1.5" fill="white" opacity="0.34"/><circle cx="267" cy="364" r="1.5" fill="white" opacity="0.34"/><circle cx="394" cy="317" r="1.5" fill="white" opacity="0.13"/><circle cx="240" cy="343" r="1.5" fill="white" opacity="0.19"/><circle cx="523" cy="586" r="1.5" fill="white" opacity="0.30"/><circle cx="512" cy="183" r="1.5" fill="white" opacity="0.11"/><circle cx="440" cy="33" r="1.5" fill="white" opacity="0.23"/><circle cx="227" cy="437" r="1.5" fill="white" opacity="0.11"/><circle cx="209" cy="105" r="1.5" fill="white" opacity="0.29"/><circle cx="225" cy="182" r="1.5" fill="white" opacity="0.12"/><circle cx="280" cy="37" r="1.5" fill="white" opacity="0.21"/><circle cx="510" cy="352" r="1.5" fill="white" opacity="0.25"/><circle cx="53" cy="526" r="1.5" fill="white" opacity="0.21"/><circle cx="213" cy="347" r="1.5" fill="white" opacity="0.17"/><circle cx="487" cy="492" r="1.5" fill="white" opacity="0.16"/><circle cx="171" cy="475" r="1.5" fill="white" opacity="0.33"/><circle cx="372" cy="186" r="1.5" fill="white" opacity="0.15"/><circle cx="225" cy="6" r="1.5" fill="white" opacity="0.34"/><circle cx="349" cy="183" r="1.5" fill="white" opacity="0.16"/><circle cx="8" cy="513" r="1.5" fill="white" opacity="0.11"/><circle cx="118" cy="369" r="1.5" fill="white" opacity="0.35"/><circle cx="515" cy="158" r="1.5" fill="white" opacity="0.11"/><circle cx="330" cy="286" r="1.5" fill="white" opacity="0.26"/>
<rect x="30" y="680" width="150" height="16" rx="8" fill="#69f0ae"/><rect x="38" y="684" width="134" height="5" rx="2" fill="rgba(255,255,255,0.3)"/><rect x="195" y="600" width="130" height="16" rx="8" fill="#69f0ae"/><rect x="203" y="604" width="114" height="5" rx="2" fill="rgba(255,255,255,0.3)"/><rect x="370" y="530" width="120" height="16" rx="8" fill="#69f0ae"/><rect x="378" y="534" width="104" height="5" rx="2" fill="rgba(255,255,255,0.3)"/><rect x="80" y="460" width="140" height="16" rx="8" fill="#69f0ae"/><rect x="88" y="464" width="124" height="5" rx="2" fill="rgba(255,255,255,0.3)"/><rect x="290" y="390" width="130" height="16" rx="8" fill="#69f0ae"/><rect x="298" y="394" width="114" height="5" rx="2" fill="rgba(255,255,255,0.3)"/><rect x="450" y="320" width="110" height="16" rx="8" fill="#69f0ae"/><rect x="458" y="324" width="94" height="5" rx="2" fill="rgba(255,255,255,0.3)"/><rect x="110" y="250" width="145" height="16" rx="8" fill="#69f0ae"/><rect x="118" y="254" width="129" height="5" rx="2" fill="rgba(255,255,255,0.3)"/><rect x="310" y="175" width="130" height="16" rx="8" fill="#69f0ae"/><rect x="318" y="179" width="114" height="5" rx="2" fill="rgba(255,255,255,0.3)"/><rect x="460" y="105" width="110" height="16" rx="8" fill="#69f0ae"/><rect x="468" y="109" width="94" height="5" rx="2" fill="rgba(255,255,255,0.3)"/><rect x="50" y="120" width="120" height="16" rx="8" fill="#69f0ae"/><rect x="58" y="124" width="104" height="5" rx="2" fill="rgba(255,255,255,0.3)"/><rect x="160" y="575" width="18" height="20" fill="#FFD600" rx="2"/><rect x="162" y="567" width="14" height="10" fill="#FF6D00" rx="2"/>
<rect x="277" y="155" width="21" height="21" fill="#1DE9B6"/><rect x="299" y="155" width="21" height="21" fill="#1DE9B6"/><rect x="321" y="155" width="21" height="21" fill="#1DE9B6"/><rect x="255" y="177" width="21" height="21" fill="#1DE9B6"/><rect x="277" y="177" width="21" height="21" fill="#1DE9B6"/><rect x="299" y="177" width="21" height="21" fill="#1DE9B6"/><rect x="321" y="177" width="21" height="21" fill="#1DE9B6"/><rect x="343" y="177" width="21" height="21" fill="#1DE9B6"/><rect x="255" y="199" width="21" height="21" fill="#1DE9B6"/><rect x="277" y="199" width="21" height="21" fill="#1DE9B6"/><rect x="299" y="199" width="21" height="21" fill="#1DE9B6"/><rect x="321" y="199" width="21" height="21" fill="#1DE9B6"/><rect x="343" y="199" width="21" height="21" fill="#1DE9B6"/><rect x="299" y="221" width="21" height="21" fill="#1DE9B6"/><rect x="277" y="243" width="21" height="21" fill="#1DE9B6"/><rect x="321" y="243" width="21" height="21" fill="#1DE9B6"/>
<circle cx="308" cy="129" r="26" fill="#1DE9B6"/><circle cx="299" cy="124" r="5" fill="white"/><circle cx="317" cy="124" r="5" fill="white"/><circle cx="300" cy="125" r="2.5" fill="black"/><circle cx="318" cy="125" r="2.5" fill="black"/><path d="M 299 135 Q 308 144 317 135" stroke="black" stroke-width="2" fill="none"/>
<circle cx="277" cy="265" r="4.0" fill="#1DE9B6" opacity="0.60"/><circle cx="277" cy="283" r="3.6" fill="#1DE9B6" opacity="0.52"/><circle cx="277" cy="301" r="3.2" fill="#1DE9B6" opacity="0.44"/><circle cx="277" cy="319" r="2.8" fill="#1DE9B6" opacity="0.36"/><circle cx="277" cy="337" r="2.4" fill="#1DE9B6" opacity="0.28"/><circle cx="277" cy="355" r="2.0" fill="#1DE9B6" opacity="0.20"/>
<rect x="428" y="380" width="19" height="19" fill="#FF5252"/><rect x="448" y="380" width="19" height="19" fill="#FF5252"/><rect x="468" y="380" width="19" height="19" fill="#FF5252"/><rect x="408" y="400" width="19" height="19" fill="#FF5252"/><rect x="448" y="400" width="19" height="19" fill="#FF5252"/><rect x="488" y="400" width="19" height="19" fill="#FF5252"/><rect x="408" y="420" width="19" height="19" fill="#FF5252"/><rect x="428" y="420" width="19" height="19" fill="#FF5252"/><rect x="448" y="420" width="19" height="19" fill="#FF5252"/><rect x="468" y="420" width="19" height="19" fill="#FF5252"/><rect x="488" y="420" width="19" height="19" fill="#FF5252"/><rect x="428" y="440" width="19" height="19" fill="#FF5252"/><rect x="468" y="440" width="19" height="19" fill="#FF5252"/><rect x="80" y="252" width="17" height="17" fill="#FF5252"/><rect x="98" y="252" width="17" height="17" fill="#FF5252"/><rect x="116" y="252" width="17" height="17" fill="#FF5252"/><rect x="62" y="270" width="17" height="17" fill="#FF5252"/><rect x="98" y="270" width="17" height="17" fill="#FF5252"/><rect x="134" y="270" width="17" height="17" fill="#FF5252"/><rect x="62" y="288" width="17" height="17" fill="#FF5252"/><rect x="80" y="288" width="17" height="17" fill="#FF5252"/><rect x="98" y="288" width="17" height="17" fill="#FF5252"/><rect x="116" y="288" width="17" height="17" fill="#FF5252"/><rect x="134" y="288" width="17" height="17" fill="#FF5252"/><rect x="80" y="306" width="17" height="17" fill="#FF5252"/><rect x="116" y="306" width="17" height="17" fill="#FF5252"/>
<text x="450" y="108" font-family="'Courier New', monospace" font-size="20" font-weight="bold" fill="#FFD600" opacity="0.85">+200</text><text x="50" y="440" font-family="'Courier New', monospace" font-size="16" font-weight="bold" fill="#FFD600" opacity="0.6">+100</text><text x="340" y="370" font-family="'Courier New', monospace" font-size="14" font-weight="bold" fill="#FFD600" opacity="0.5">+50</text>
<rect width="600" height="800" fill="url(#fade)"/>
<text x="44" y="740" font-family="'Courier New', monospace" font-size="52" font-weight="bold" fill="#1DE9B6">DOODLE JUMP</text>
</svg>