<svg xmlns="http://www.w3.org/2000/svg" width="600" height="800" viewBox="0 0 600 800" shape-rendering="crispEdges">
<defs>
  <linearGradient id="sky" x1="0" y1="0" x2="0" y2="1">
    <stop offset="0%" stop-color="#b8d4f0"/>
    <stop offset="100%" stop-color="#e8f4fd"/>
  </linearGradient>
</defs>
<rect width="600" height="800" fill="url(#sky)"/><rect x="0" y="480" width="60" height="260" fill="#c5d8ec"/><rect x="6" y="494" width="9" height="11" rx="1" fill="rgba(255,255,255,0.55)"/><rect x="24" y="494" width="9" height="11" rx="1" fill="rgba(255,255,255,0.55)"/><rect x="42" y="494" width="9" height="11" rx="1" fill="rgba(255,255,255,0.55)"/><rect x="6" y="516" width="9" height="11" rx="1" fill="rgba(255,255,255,0.55)"/><rect x="24" y="516" width="9" height="11" rx="1" fill="rgba(255,255,255,0.55)"/><rect x="42" y="516" width="9" height="11" rx="1" fill="rgba(255,255,255,0.55)"/><rect x="6" y="538" width="9" height="11" rx="1" fill="rgba(255,255,255,0.55)"/><rect x="24" y="538" width="9" height="11" rx="1" fill="rgba(255,255,255,0.55)"/><rect x="42" y="538" width="9" height="11" rx="1" fill="rgba(255,255,255,0.55)"/><rect x="55" y="510" width="45" height="240" fill="#bdd0e8"/><rect x="61" y="524" width="9" height="11" rx="1" fill="rgba(255,255,255,0.55)"/><rect x="79" y="524" width="9" height="11" rx="1" fill="rgba(255,255,255,0.55)"/><rect x="61" y="546" width="9" height="11" rx="1" fill="rgba(255,255,255,0.55)"/><rect x="79" y="546" width="9" height="11" rx="1" fill="rgba(255,255,255,0.55)"/><rect x="61" y="568" width="9" height="11" rx="1" fill="rgba(255,255,255,0.55)"/><rect x="79" y="568" width="9" height="11" rx="1" fill="rgba(255,255,255,0.55)"/><rect x="90" y="440" width="80" height="320" fill="#c5d8ec"/><rect x="96" y="454" width="9" height="11" rx="1" fill="rgba(255,255,255,0.55)"/><rect x="114" y="454" width="9" height="11" rx="1" fill="rgba(255,255,255,0.55)"/><rect x="132" y="454" width="9" height="11" rx="1" fill="rgba(255,255,255,0.55)"/><rect x="150" y="454" width="9" height="11" rx="1" fill="rgba(255,255,255,0.55)"/><rect x="96" y="476" width="9" height="11" rx="1" fill="rgba(255,255,255,0.55)"/><rect x="114" y="476" width="9" height="11" rx="1" fill="rgba(255,255,255,0.55)"/><rect x="132" y="476" width="9" height="11" rx="1" fill="rgba(255,255,255,0.55)"/><rect x="150" y="476" width="9" height="11" rx="1" fill="rgba(255,255,255,0.55)"/><rect x="96" y="498" width="9" height="11" rx="1" fill="rgba(255,255,255,0.55)"/><rect x="114" y="498" width="9" height="11" rx="1" fill="rgba(255,255,255,0.55)"/><rect x="132" y="498" width="9" height="11" rx="1" fill="rgba(255,255,255,0.55)"/><rect x="150" y="498" width="9" height="11" rx="1" fill="rgba(255,255,255,0.55)"/><rect x="160" y="490" width="50" height="270" fill="#bdd0e8"/><rect x="166" y="504" width="9" height="11" rx="1" fill="rgba(255,255,255,0.55)"/><rect x="184" y="504" width="9" height="11" rx="1" fill="rgba(255,255,255,0.55)"/><rect x="166" y="526" width="9" height="11" rx="1" fill="rgba(255,255,255,0.55)"/><rect x="184" y="526" width="9" height="11" rx="1" fill="rgba(255,255,255,0.55)"/><rect x="166" y="548" width="9" height="11" rx="1" fill="rgba(255,255,255,0.55)"/><rect x="184" y="548" width="9" height="11" rx="1" fill="rgba(255,255,255,0.55)"/><rect x="200" y="420" width="90" height="340" fill="#b8cfea"/><rect x="206" y="434" width="9" height="11" rx="1" fill="rgba(255,255,255,0.55)"/><rect x="224" y="434" width="9" height="11" rx="1" fill="rgba(255,255,255,0.55)"/><rect x="242" y="434" width="9" height="11" rx="1" fill="rgba(255,255,255,0.55)"/><rect x="260" y="434" width="9" height="11" rx="1" fill="rgba(255,255,255,0.55)"/><rect x="206" y="456" width="9" height="11" rx="1" fill="rgba(255,255,255,0.55)"/><rect x="224" y="456" width="9" height="11" rx="1" fill="rgba(255,255,255,0.55)"/><rect x="242" y="456" width="9" height="11" rx="1" fill="rgba(255,255,255,0.55)"/><rect x="260" y="456" width="9" height="11" rx="1" fill="rgba(255,255,255,0.55)"/><rect x="206" y="478" width="9" height="11" rx="1" fill="rgba(255,255,255,0.55)"/><rect x="224" y="478" width="9" height="11" rx="1" fill="rgba(255,255,255,0.55)"/><rect x="242" y="478" width="9" height="11" rx="1" fill="rgba(255,255,255,0.55)"/><rect x="260" y="478" width="9" height="11" rx="1" fill="rgba(255,255,255,0.55)"/><rect x="280" y="460" width="55" height="290" fill="#c5d8ec"/><rect x="286" y="474" width="9" height="11" rx="1" fill="rgba(255,255,255,0.55)"/><rect x="304" y="474" width="9" height="11" rx="1" fill="rgba(255,255,255,0.55)"/><rect x="286" y="496" width="9" height="11" rx="1" fill="rgba(255,255,255,0.55)"/><rect x="304" y="496" width="9" height="11" rx="1" fill="rgba(255,255,255,0.55)"/><rect x="286" y="518" width="9" height="11" rx="1" fill="rgba(255,255,255,0.55)"/><rect x="304" y="518" width="9" height="11" rx="1" fill="rgba(255,255,255,0.55)"/><rect x="325" y="400" width="100" height="360" fill="#b8cfea"/><rect x="331" y="414" width="9" height="11" rx="1" fill="rgba(255,255,255,0.55)"/><rect x="349" y="414" width="9" height="11" rx="1" fill="rgba(255,255,255,0.55)"/><rect x="367" y="414" width="9" height="11" rx="1" fill="rgba(255,255,255,0.55)"/><rect x="385" y="414" width="9" height="11" rx="1" fill="rgba(255,255,255,0.55)"/><rect x="403" y="414" width="9" height="11" rx="1" fill="rgba(255,255,255,0.55)"/><rect x="331" y="436" width="9" height="11" rx="1" fill="rgba(255,255,255,0.55)"/><rect x="349" y="436" width="9" height="11" rx="1" fill="rgba(255,255,255,0.55)"/><rect x="367" y="436" width="9" height="11" rx="1" fill="rgba(255,255,255,0.55)"/><rect x="385" y="436" width="9" height="11" rx="1" fill="rgba(255,255,255,0.55)"/><rect x="403" y="436" width="9" height="11" rx="1" fill="rgba(255,255,255,0.55)"/><rect x="331" y="458" width="9" height="11" rx="1" fill="rgba(255,255,255,0.55)"/><rect x="349" y="458" width="9" height="11" rx="1" fill="rgba(255,255,255,0.55)"/><rect x="367" y="458" width="9" height="11" rx="1" fill="rgba(255,255,255,0.55)"/><rect x="385" y="458" width="9" height="11" rx="1" fill="rgba(255,255,255,0.55)"/><rect x="403" y="458" width="9" height="11" rx="1" fill="rgba(255,255,255,0.55)"/><rect x="415" y="470" width="70" height="290" fill="#c5d8ec"/><rect x="421" y="484" width="9" height="11" rx="1" fill="rgba(255,255,255,0.55)"/><rect x="439" y="484" width="9" height="11" rx="1" fill="rgba(255,255,255,0.55)"/><rect x="457" y="484" width="9" height="11" rx="1" fill="rgba(255,255,255,0.55)"/><rect x="421" y="506" width="9" height="11" rx="1" fill="rgba(255,255,255,0.55)"/><rect x="439" y="506" width="9" height="11" rx="1" fill="rgba(255,255,255,0.55)"/><rect x="457" y="506" width="9" height="11" rx="1" fill="rgba(255,255,255,0.55)"/><rect x="421" y="528" width="9" height="11" rx="1" fill="rgba(255,255,255,0.55)"/><rect x="439" y="528" width="9" height="11" rx="1" fill="rgba(255,255,255,0.55)"/><rect x="457" y="528" width="9" height="11" rx="1" fill="rgba(255,255,255,0.55)"/><rect x="475" y="430" width="85" height="330" fill="#bdd0e8"/><rect x="481" y="444" width="9" height="11" rx="1" fill="rgba(255,255,255,0.55)"/><rect x="499" y="444" width="9" height="11" rx="1" fill="rgba(255,255,255,0.55)"/><rect x="517" y="444" width="9" height="11" rx="1" fill="rgba(255,255,255,0.55)"/><rect x="535" y="444" width="9" height="11" rx="1" fill="rgba(255,255,255,0.55)"/><rect x="481" y="466" width="9" height="11" rx="1" fill="rgba(255,255,255,0.55)"/><rect x="499" y="466" width="9" height="11" rx="1" fill="rgba(255,255,255,0.55)"/><rect x="517" y="466" width="9" height="11" rx="1" fill="rgba(255,255,255,0.55)"/><rect x="535" y="466" width="9" height="11" rx="1" fill="rgba(255,255,255,0.55)"/><rect x="481" y="488" width="9" height="11" rx="1" fill="rgba(255,255,255,0.55)"/><rect x="499" y="488" width="9" height="11" rx="1" fill="rgba(255,255,255,0.55)"/><rect x="517" y="488" width="9" height="11" rx="1" fill="rgba(255,255,255,0.55)"/><rect x="535" y="488" width="9" height="11" rx="1" fill="rgba(255,255,255,0.55)"/><rect x="550" y="500" width="60" height="260" fill="#c5d8ec"/><rect x="556" y="514" width="9" height="11" rx="1" fill="rgba(255,255,255,0.55)"/><rect x="574" y="514" width="9" height="11" rx="1" fill="rgba(255,255,255,0.55)"/><rect x="592" y="514" width="9" height="11" rx="1" fill="rgba(255,255,255,0.55)"/><rect x="556" y="536" width="9" height="11" rx="1" fill="rgba(255,255,255,0.55)"/><rect x="574" y="536" width="9" height="11" rx="1" fill="rgba(255,255,255,0.55)"/><rect x="592" y="536" width="9" height="11" rx="1" fill="rgba(255,255,255,0.55)"/><rect x="556" y="558" width="9" height="11" rx="1" fill="rgba(255,255,255,0.55)"/><rect x="574" y="558" width="9" height="11" rx="1" fill="rgba(255,255,255,0.55)"/><rect x="592" y="558" width="9" height="11" rx="1" fill="rgba(255,255,255,0.55)"/><rect x="0" y="648" width="600" height="152" fill="#a8c4de"/><rect x="0" y="644" width="600" height="8" fill="#90b4d0"/>
<circle cx="530" cy="80" r="42" fill="#FFE082" opacity="0.7"/><line x1="580" y1="80" x2="592" y2="80" stroke="#FFD54F" stroke-width="3" stroke-linecap="round"/><line x1="573" y1="105" x2="584" y2="111" stroke="#FFD54F" stroke-width="3" stroke-linecap="round"/><line x1="555" y1="123" x2="561" y2="134" stroke="#FFD54F" stroke-width="3" stroke-linecap="round"/><line x1="530" y1="130" x2="530" y2="142" stroke="#FFD54F" stroke-width="3" stroke-linecap="round"/><line x1="505" y1="123" x2="499" y2="134" stroke="#FFD54F" stroke-width="3" stroke-linecap="round"/><line x1="487" y1="105" x2="476" y2="111" stroke="#FFD54F" stroke-width="3" stroke-linecap="round"/><line x1="480" y1="80" x2="468" y2="80" stroke="#FFD54F" stroke-width="3" stroke-linecap="round"/><line x1="487" y1="55" x2="476" y2="49" stroke="#FFD54F" stroke-width="3" stroke-linecap="round"/><line x1="505" y1="37" x2="499" y2="26" stroke="#FFD54F" stroke-width="3" stroke-linecap="round"/><line x1="530" y1="30" x2="530" y2="18" stroke="#FFD54F" stroke-width="3" stroke-linecap="round"/><line x1="555" y1="37" x2="561" y2="26" stroke="#FFD54F" stroke-width="3" stroke-linecap="round"/><line x1="573" y1="55" x2="584" y2="49" stroke="#FFD54F" stroke-width="3" stroke-linecap="round"/>
<rect x="142" y="600" width="316" height="46" rx="4" fill="#FF5252" stroke="#D32F2F" stroke-width="1.5"/><rect x="147" y="605" width="306" height="12" rx="2" fill="rgba(255,255,255,0.3)"/><rect x="142" y="641" width="316" height="5" fill="rgba(0,0,0,0.12)"/><rect x="164" y="554" width="272" height="46" rx="4" fill="#FF9800" stroke="#E65100" stroke-width="1.5"/><rect x="169" y="559" width="262" height="12" rx="2" fill="rgba(255,255,255,0.3)"/><rect x="164" y="595" width="272" height="5" fill="rgba(0,0,0,0.12)"/><rect x="188" y="508" width="224" height="46" rx="4" fill="#FFEB3B" stroke="#F9A825" stroke-width="1.5"/><rect x="193" y="513" width="214" height="12" rx="2" fill="rgba(255,255,255,0.3)"/><rect x="188" y="549" width="224" height="5" fill="rgba(0,0,0,0.12)"/><rect x="210" y="462" width="180" height="46" rx="4" fill="#4CAF50" stroke="#2E7D32" stroke-width="1.5"/><rect x="215" y="467" width="170" height="12" rx="2" fill="rgba(255,255,255,0.3)"/><rect x="210" y="503" width="180" height="5" fill="rgba(0,0,0,0.12)"/><rect x="232" y="416" width="136" height="46" rx="4" fill="#2196F3" stroke="#0D47A1" stroke-width="1.5"/><rect x="237" y="421" width="126" height="12" rx="2" fill="rgba(255,255,255,0.3)"/><rect x="232" y="457" width="136" height="5" fill="rgba(0,0,0,0.12)"/><rect x="252" y="370" width="96" height="46" rx="4" fill="#9C27B0" stroke="#6A1B9A" stroke-width="1.5"/><rect x="257" y="375" width="86" height="12" rx="2" fill="rgba(255,255,255,0.3)"/><rect x="252" y="411" width="96" height="5" fill="rgba(0,0,0,0.12)"/><rect x="270" y="324" width="60" height="46" rx="4" fill="#E91E63" stroke="#880E4F" stroke-width="1.5"/><rect x="275" y="329" width="50" height="12" rx="2" fill="rgba(255,255,255,0.3)"/><rect x="270" y="365" width="60" height="5" fill="rgba(0,0,0,0.12)"/><rect x="281" y="278" width="38" height="46" rx="4" fill="#00BCD4" stroke="#006064" stroke-width="1.5"/><rect x="286" y="283" width="28" height="12" rx="2" fill="rgba(255,255,255,0.3)"/><rect x="281" y="319" width="38" height="5" fill="rgba(0,0,0,0.12)"/>
<rect x="430" y="192" width="60" height="44" rx="4" fill="#FF9800" stroke="#E65100" stroke-width="1.5" opacity="0.85"/><rect x="435" y="197" width="50" height="12" rx="2" fill="rgba(255,255,255,0.3)"/>
<rect x="296" y="52" width="8" height="240" fill="#546E7A"/><rect x="60" y="52" width="244" height="8" fill="#607D8B"/><rect x="48" y="30" width="8" height="78" fill="#455A64"/><rect x="24" y="52" width="52" height="18" rx="3" fill="#37474F"/><rect x="26" y="54" width="48" height="6" rx="2" fill="#546E7A"/><line x1="300" y1="60" x2="460" y2="192" stroke="#37474F" stroke-width="2.5"/>
<defs>
  <linearGradient id="fade" x1="0" y1="0" x2="0" y2="1">
    <stop offset="55%" stop-color="rgba(180,210,240,0)"/>
    <stop offset="100%" stop-color="rgba(80,120,160,0.88)"/>
  </linearGradient>
</defs>
<rect width="600" height="800" fill="url(#fade)"/>
<text x="44" y="740" font-family="'Courier New', monospace" font-size="52" font-weight="bold" fill="#1a2a3a">TOWER BLOXX</text>
</svg>