<svg xmlns="http://www.w3.org/2000/svg" width="600" height="800" viewBox="0 0 600 800" shape-rendering="crispEdges">
<defs>
  <linearGradient id="bg" x1="0" y1="0" x2="0.15" y2="1">
    <stop offset="0%" stop-color="#02010f"/>
    <stop offset="100%" stop-color="#1a0030"/>
  </linearGradient>
  <linearGradient id="fade" x1="0" y1="0" x2="0" y2="1">
    <stop offset="40%" stop-color="rgba(0,0,0,0)"/>
    <stop offset="100%" stop-color="rgba(0,0,0,0.92)"/>
  </linearGradient>
</defs>
<rect width="600" height="800" fill="url(#bg)"/>
<circle cx="114" cy="25" r="2" fill="white" opacity="0.5"/><circle cx="228" cy="142" r="2" fill="white" opacity="0.4"/><circle cx="558" cy="89" r="2" fill="white" opacity="0.6"/><circle cx="30" cy="95" r="1" fill="white" opacity="0.4"/><circle cx="27" cy="203" r="2" fill="white" opacity="0.7"/><circle cx="558" cy="429" r="1" fill="white" opacity="0.6"/><circle cx="284" cy="6" r="1" fill="white" opacity="0.7"/><circle cx="348" cy="284" r="1" fill="white" opacity="0.4"/><circle cx="344" cy="104" r="1" fill="white" opacity="0.5"/><circle cx="367" cy="352" r="2" fill="white" opacity="0.5"/><circle cx="44" cy="470" r="2" fill="white" opacity="0.4"/><circle cx="387" cy="80" r="2" fill="white" opacity="0.5"/><circle cx="370" cy="196" r="2" fill="white" opacity="0.3"/><circle cx="233" cy="296" r="1" fill="white" opacity="0.8"/><circle cx="103" cy="389" r="1" fill="white" opacity="0.6"/><circle cx="373" cy="166" r="1" fill="white" opacity="0.5"/><circle cx="273" cy="73" r="2" fill="white" opacity="0.7"/><circle cx="546" cy="250" r="1" fill="white" opacity="0.6"/><circle cx="276" cy="224" r="2" fill="white" opacity="0.5"/><circle cx="57" cy="234" r="1" fill="white" opacity="0.8"/><circle cx="410" cy="274" r="1" fill="white" opacity="0.4"/><circle cx="580" cy="322" r="1" fill="white" opacity="0.7"/><circle cx="405" cy="469" r="1" fill="white" opacity="0.5"/><circle cx="252" cy="551" r="1" fill="white" opacity="0.7"/><circle cx="438" cy="408" r="1" fill="white" opacity="0.4"/><circle cx="141" cy="521" r="1" fill="white" opacity="0.4"/><circle cx="48" cy="112" r="1" fill="white" opacity="0.7"/><circle cx="432" cy="65" r="1" fill="white" opacity="0.5"/><circle cx="479" cy="541" r="1" fill="white" opacity="0.9"/><circle cx="11" cy="117" r="2" fill="white" opacity="0.8"/><circle cx="273" cy="348" r="1" fill="white" opacity="0.5"/><circle cx="161" cy="464" r="1" fill="white" opacity="0.9"/><circle cx="269" cy="512" r="1" fill="white" opacity="0.6"/><circle cx="108" cy="305" r="2" fill="white" opacity="0.6"/><circle cx="203" cy="156" r="1" fill="white" opacity="0.8"/><circle cx="552" cy="543" r="1" fill="white" opacity="0.7"/><circle cx="500" cy="19" r="1" fill="white" opacity="0.9"/><circle cx="314" cy="245" r="1" fill="white" opacity="0.4"/><circle cx="580" cy="80" r="1" fill="white" opacity="0.7"/><circle cx="70" cy="545" r="1" fill="white" opacity="0.4"/><circle cx="486" cy="169" r="1" fill="white" opacity="0.6"/><circle cx="433" cy="216" r="2" fill="white" opacity="0.8"/><circle cx="205" cy="319" r="1" fill="white" opacity="0.9"/><circle cx="382" cy="448" r="2" fill="white" opacity="0.6"/><circle cx="253" cy="230" r="1" fill="white" opacity="0.5"/><circle cx="567" cy="235" r="2" fill="white" opacity="0.4"/><circle cx="72" cy="60" r="1" fill="white" opacity="0.3"/><circle cx="32" cy="338" r="1" fill="white" opacity="0.6"/><circle cx="285" cy="497" r="1" fill="white" opacity="0.6"/><circle cx="584" cy="484" r="1" fill="white" opacity="0.8"/><circle cx="416" cy="194" r="1" fill="white" opacity="0.4"/><circle cx="441" cy="362" r="1" fill="white" opacity="0.5"/><circle cx="55" cy="100" r="1" fill="white" opacity="0.5"/><circle cx="347" cy="111" r="1" fill="white" opacity="0.4"/><circle cx="549" cy="459" r="1" fill="white" opacity="0.6"/><circle cx="285" cy="473" r="1" fill="white" opacity="0.8"/><circle cx="77" cy="453" r="2" fill="white" opacity="0.4"/><circle cx="553" cy="15" r="1" fill="white" opacity="0.9"/><circle cx="242" cy="170" r="1" fill="white" opacity="0.6"/><circle cx="218" cy="410" r="1" fill="white" opacity="0.4"/><circle cx="2" cy="399" r="1" fill="white" opacity="0.9"/><circle cx="465" cy="292" r="1" fill="white" opacity="0.7"/><circle cx="569" cy="498" r="1" fill="white" opacity="0.4"/><circle cx="222" cy="59" r="2" fill="white" opacity="0.7"/><circle cx="62" cy="321" r="1" fill="white" opacity="0.3"/><circle cx="488" cy="514" r="2" fill="white" opacity="0.4"/><circle cx="520" cy="82" r="1" fill="white" opacity="0.3"/><circle cx="69" cy="240" r="1" fill="white" opacity="0.4"/><circle cx="583" cy="252" r="2" fill="white" opacity="0.7"/><circle cx="83" cy="429" r="2" fill="white" opacity="0.7"/><circle cx="535" cy="323" r="1" fill="white" opacity="0.4"/><circle cx="321" cy="244" r="1" fill="white" opacity="0.5"/><circle cx="307" cy="468" r="1" fill="white" opacity="0.9"/><circle cx="74" cy="9" r="1" fill="white" opacity="0.7"/><circle cx="576" cy="102" r="1" fill="white" opacity="0.6"/><circle cx="518" cy="271" r="1" fill="white" opacity="0.9"/><circle cx="70" cy="250" r="1" fill="white" opacity="0.5"/><circle cx="448" cy="556" r="2" fill="white" opacity="0.5"/><circle cx="541" cy="8" r="2" fill="white" opacity="0.8"/><circle cx="306" cy="106" r="1" fill="white" opacity="0.5"/><circle cx="109" cy="159" r="1" fill="white" opacity="0.5"/><circle cx="215" cy="351" r="1" fill="white" opacity="0.7"/><circle cx="270" cy="517" r="1" fill="white" opacity="0.5"/><circle cx="52" cy="94" r="2" fill="white" opacity="0.6"/><circle cx="283" cy="45" r="1" fill="white" opacity="0.5"/><circle cx="133" cy="268" r="1" fill="white" opacity="0.7"/><circle cx="564" cy="437" r="2" fill="white" opacity="0.3"/><circle cx="77" cy="152" r="2" fill="white" opacity="0.3"/><circle cx="378" cy="151" r="1" fill="white" opacity="0.4"/><circle cx="315" cy="373" r="1" fill="white" opacity="0.8"/><circle cx="215" cy="255" r="2" fill="white" opacity="0.4"/><circle cx="573" cy="416" r="2" fill="white" opacity="0.7"/><circle cx="242" cy="166" r="1" fill="white" opacity="0.8"/><circle cx="25" cy="183" r="2" fill="white" opacity="0.9"/><circle cx="421" cy="254" r="1" fill="white" opacity="0.4"/><circle cx="110" cy="391" r="1" fill="white" opacity="0.8"/><circle cx="227" cy="204" r="1" fill="white" opacity="0.5"/><circle cx="233" cy="228" r="1" fill="white" opacity="0.7"/><circle cx="408" cy="336" r="1" fill="white" opacity="0.8"/><circle cx="285" cy="359" r="2" fill="white" opacity="0.6"/><circle cx="549" cy="339" r="1" fill="white" opacity="0.4"/><circle cx="267" cy="182" r="2" fill="white" opacity="0.9"/><circle cx="271" cy="39" r="1" fill="white" opacity="0.7"/><circle cx="353" cy="321" r="1" fill="white" opacity="0.7"/><circle cx="523" cy="118" r="1" fill="white" opacity="0.8"/><circle cx="194" cy="260" r="1" fill="white" opacity="0.7"/><circle cx="1" cy="532" r="2" fill="white" opacity="0.7"/><circle cx="201" cy="372" r="1" fill="white" opacity="0.3"/><circle cx="338" cy="321" r="2" fill="white" opacity="0.8"/><circle cx="307" cy="519" r="1" fill="white" opacity="0.7"/>
<rect x="38" y="20" width="8" height="8" fill="#9c27b0" opacity="0.18"/><rect x="92" y="20" width="8" height="8" fill="#9c27b0" opacity="0.18"/><rect x="47" y="29" width="8" height="8" fill="#9c27b0" opacity="0.18"/><rect x="83" y="29" width="8" height="8" fill="#9c27b0" opacity="0.18"/><rect x="38" y="38" width="8" height="8" fill="#9c27b0" opacity="0.18"/><rect x="47" y="38" width="8" height="8" fill="#9c27b0" opacity="0.18"/><rect x="56" y="38" width="8" height="8" fill="#9c27b0" opacity="0.18"/><rect x="65" y="38" width="8" height="8" fill="#9c27b0" opacity="0.18"/><rect x="74" y="38" width="8" height="8" fill="#9c27b0" opacity="0.18"/><rect x="83" y="38" width="8" height="8" fill="#9c27b0" opacity="0.18"/><rect x="92" y="38" width="8" height="8" fill="#9c27b0" opacity="0.18"/><rect x="29" y="47" width="8" height="8" fill="#9c27b0" opacity="0.18"/><rect x="38" y="47" width="8" height="8" fill="#9c27b0" opacity="0.18"/><rect x="56" y="47" width="8" height="8" fill="#9c27b0" opacity="0.18"/><rect x="65" y="47" width="8" height="8" fill="#9c27b0" opacity="0.18"/><rect x="74" y="47" width="8" height="8" fill="#9c27b0" opacity="0.18"/><rect x="92" y="47" width="8" height="8" fill="#9c27b0" opacity="0.18"/><rect x="101" y="47" width="8" height="8" fill="#9c27b0" opacity="0.18"/><rect x="20" y="56" width="8" height="8" fill="#9c27b0" opacity="0.18"/><rect x="29" y="56" width="8" height="8" fill="#9c27b0" opacity="0.18"/><rect x="38" y="56" width="8" height="8" fill="#9c27b0" opacity="0.18"/><rect x="47" y="56" width="8" height="8" fill="#9c27b0" opacity="0.18"/><rect x="56" y="56" width="8" height="8" fill="#9c27b0" opacity="0.18"/><rect x="65" y="56" width="8" height="8" fill="#9c27b0" opacity="0.18"/><rect x="74" y="56" width="8" height="8" fill="#9c27b0" opacity="0.18"/><rect x="83" y="56" width="8" height="8" fill="#9c27b0" opacity="0.18"/><rect x="92" y="56" width="8" height="8" fill="#9c27b0" opacity="0.18"/><rect x="101" y="56" width="8" height="8" fill="#9c27b0" opacity="0.18"/><rect x="110" y="56" width="8" height="8" fill="#9c27b0" opacity="0.18"/><rect x="20" y="65" width="8" height="8" fill="#9c27b0" opacity="0.18"/><rect x="38" y="65" width="8" height="8" fill="#9c27b0" opacity="0.18"/><rect x="47" y="65" width="8" height="8" fill="#9c27b0" opacity="0.18"/><rect x="56" y="65" width="8" height="8" fill="#9c27b0" opacity="0.18"/><rect x="65" y="65" width="8" height="8" fill="#9c27b0" opacity="0.18"/><rect x="74" y="65" width="8" height="8" fill="#9c27b0" opacity="0.18"/><rect x="83" y="65" width="8" height="8" fill="#9c27b0" opacity="0.18"/><rect x="92" y="65" width="8" height="8" fill="#9c27b0" opacity="0.18"/><rect x="110" y="65" width="8" height="8" fill="#9c27b0" opacity="0.18"/><rect x="20" y="74" width="8" height="8" fill="#9c27b0" opacity="0.18"/><rect x="38" y="74" width="8" height="8" fill="#9c27b0" opacity="0.18"/><rect x="92" y="74" width="8" height="8" fill="#9c27b0" opacity="0.18"/><rect x="110" y="74" width="8" height="8" fill="#9c27b0" opacity="0.18"/><rect x="47" y="83" width="8" height="8" fill="#9c27b0" opacity="0.18"/><rect x="56" y="83" width="8" height="8" fill="#9c27b0" opacity="0.18"/><rect x="74" y="83" width="8" height="8" fill="#9c27b0" opacity="0.18"/><rect x="83" y="83" width="8" height="8" fill="#9c27b0" opacity="0.18"/><rect x="146" y="20" width="8" height="8" fill="#9c27b0" opacity="0.18"/><rect x="200" y="20" width="8" height="8" fill="#9c27b0" opacity="0.18"/><rect x="155" y="29" width="8" height="8" fill="#9c27b0" opacity="0.18"/><rect x="191" y="29" width="8" height="8" fill="#9c27b0" opacity="0.18"/><rect x="146" y="38" width="8" height="8" fill="#9c27b0" opacity="0.18"/><rect x="155" y="38" width="8" height="8" fill="#9c27b0" opacity="0.18"/><rect x="164" y="38" width="8" height="8" fill="#9c27b0" opacity="0.18"/><rect x="173" y="38" width="8" height="8" fill="#9c27b0" opacity="0.18"/><rect x="182" y="38" width="8" height="8" fill="#9c27b0" opacity="0.18"/><rect x="191" y="38" width="8" height="8" fill="#9c27b0" opacity="0.18"/><rect x="200" y="38" width="8" height="8" fill="#9c27b0" opacity="0.18"/><rect x="137" y="47" width="8" height="8" fill="#9c27b0" opacity="0.18"/><rect x="146" y="47" width="8" height="8" fill="#9c27b0" opacity="0.18"/><rect x="164" y="47" width="8" height="8" fill="#9c27b0" opacity="0.18"/><rect x="173" y="47" width="8" height="8" fill="#9c27b0" opacity="0.18"/><rect x="182" y="47" width="8" height="8" fill="#9c27b0" opacity="0.18"/><rect x="200" y="47" width="8" height="8" fill="#9c27b0" opacity="0.18"/><rect x="209" y="47" width="8" height="8" fill="#9c27b0" opacity="0.18"/><rect x="128" y="56" width="8" height="8" fill="#9c27b0" opacity="0.18"/><rect x="137" y="56" width="8" height="8" fill="#9c27b0" opacity="0.18"/><rect x="146" y="56" width="8" height="8" fill="#9c27b0" opacity="0.18"/><rect x="155" y="56" width="8" height="8" fill="#9c27b0" opacity="0.18"/><rect x="164" y="56" width="8" height="8" fill="#9c27b0" opacity="0.18"/><rect x="173" y="56" width="8" height="8" fill="#9c27b0" opacity="0.18"/><rect x="182" y="56" width="8" height="8" fill="#9c27b0" opacity="0.18"/><rect x="191" y="56" width="8" height="8" fill="#9c27b0" opacity="0.18"/><rect x="200" y="56" width="8" height="8" fill="#9c27b0" opacity="0.18"/><rect x="209" y="56" width="8" height="8" fill="#9c27b0" opacity="0.18"/><rect x="218" y="56" width="8" height="8" fill="#9c27b0" opacity="0.18"/><rect x="128" y="65" width="8" height="8" fill="#9c27b0" opacity="0.18"/><rect x="146" y="65" width="8" height="8" fill="#9c27b0" opacity="0.18"/><rect x="155" y="65" width="8" height="8" fill="#9c27b0" opacity="0.18"/><rect x="164" y="65" width="8" height="8" fill="#9c27b0" opacity="0.18"/><rect x="173" y="65" width="8" height="8" fill="#9c27b0" opacity="0.18"/><rect x="182" y="65" width="8" height="8" fill="#9c27b0" opacity="0.18"/><rect x="191" y="65" width="8" height="8" fill="#9c27b0" opacity="0.18"/><rect x="200" y="65" width="8" height="8" fill="#9c27b0" opacity="0.18"/><rect x="218" y="65" width="8" height="8" fill="#9c27b0" opacity="0.18"/><rect x="128" y="74" width="8" height="8" fill="#9c27b0" opacity="0.18"/><rect x="146" y="74" width="8" height="8" fill="#9c27b0" opacity="0.18"/><rect x="200" y="74" width="8" height="8" fill="#9c27b0" opacity="0.18"/><rect x="218" y="74" width="8" height="8" fill="#9c27b0" opacity="0.18"/><rect x="155" y="83" width="8" height="8" fill="#9c27b0" opacity="0.18"/><rect x="164" y="83" width="8" height="8" fill="#9c27b0" opacity="0.18"/><rect x="182" y="83" width="8" height="8" fill="#9c27b0" opacity="0.18"/><rect x="191" y="83" width="8" height="8" fill="#9c27b0" opacity="0.18"/><rect x="254" y="20" width="8" height="8" fill="#9c27b0" opacity="0.18"/><rect x="308" y="20" width="8" height="8" fill="#9c27b0" opacity="0.18"/><rect x="263" y="29" width="8" height="8" fill="#9c27b0" opacity="0.18"/><rect x="299" y="29" width="8" height="8" fill="#9c27b0" opacity="0.18"/><rect x="254" y="38" width="8" height="8" fill="#9c27b0" opacity="0.18"/><rect x="263" y="38" width="8" height="8" fill="#9c27b0" opacity="0.18"/><rect x="272" y="38" width="8" height="8" fill="#9c27b0" opacity="0.18"/><rect x="281" y="38" width="8" height="8" fill="#9c27b0" opacity="0.18"/><rect x="290" y="38" width="8" height="8" fill="#9c27b0" opacity="0.18"/><rect x="299" y="38" width="8" height="8" fill="#9c27b0" opacity="0.18"/><rect x="308" y="38" width="8" height="8" fill="#9c27b0" opacity="0.18"/><rect x="245" y="47" width="8" height="8" fill="#9c27b0" opacity="0.18"/><rect x="254" y="47" width="8" height="8" fill="#9c27b0" opacity="0.18"/><rect x="272" y="47" width="8" height="8" fill="#9c27b0" opacity="0.18"/><rect x="281" y="47" width="8" height="8" fill="#9c27b0" opacity="0.18"/><rect x="290" y="47" width="8" height="8" fill="#9c27b0" opacity="0.18"/><rect x="308" y="47" width="8" height="8" fill="#9c27b0" opacity="0.18"/><rect x="317" y="47" width="8" height="8" fill="#9c27b0" opacity="0.18"/><rect x="236" y="56" width="8" height="8" fill="#9c27b0" opacity="0.18"/><rect x="245" y="56" width="8" height="8" fill="#9c27b0" opacity="0.18"/><rect x="254" y="56" width="8" height="8" fill="#9c27b0" opacity="0.18"/><rect x="263" y="56" width="8" height="8" fill="#9c27b0" opacity="0.18"/><rect x="272" y="56" width="8" height="8" fill="#9c27b0" opacity="0.18"/><rect x="281" y="56" width="8" height="8" fill="#9c27b0" opacity="0.18"/><rect x="290" y="56" width="8" height="8" fill="#9c27b0" opacity="0.18"/><rect x="299" y="56" width="8" height="8" fill="#9c27b0" opacity="0.18"/><rect x="308" y="56" width="8" height="8" fill="#9c27b0" opacity="0.18"/><rect x="317" y="56" width="8" height="8" fill="#9c27b0" opacity="0.18"/><rect x="326" y="56" width="8" height="8" fill="#9c27b0" opacity="0.18"/><rect x="236" y="65" width="8" height="8" fill="#9c27b0" opacity="0.18"/><rect x="254" y="65" width="8" height="8" fill="#9c27b0" opacity="0.18"/><rect x="263" y="65" width="8" height="8" fill="#9c27b0" opacity="0.18"/><rect x="272" y="65" width="8" height="8" fill="#9c27b0" opacity="0.18"/><rect x="281" y="65" width="8" height="8" fill="#9c27b0" opacity="0.18"/><rect x="290" y="65" width="8" height="8" fill="#9c27b0" opacity="0.18"/><rect x="299" y="65" width="8" height="8" fill="#9c27b0" opacity="0.18"/><rect x="308" y="65" width="8" height="8" fill="#9c27b0" opacity="0.18"/><rect x="326" y="65" width="8" height="8" fill="#9c27b0" opacity="0.18"/><rect x="236" y="74" width="8" height="8" fill="#9c27b0" opacity="0.18"/><rect x="254" y="74" width="8" height="8" fill="#9c27b0" opacity="0.18"/><rect x="308" y="74" width="8" height="8" fill="#9c27b0" opacity="0.18"/><rect x="326" y="74" width="8" height="8" fill="#9c27b0" opacity="0.18"/><rect x="263" y="83" width="8" height="8" fill="#9c27b0" opacity="0.18"/><rect x="272" y="83" width="8" height="8" fill="#9c27b0" opacity="0.18"/><rect x="290" y="83" width="8" height="8" fill="#9c27b0" opacity="0.18"/><rect x="299" y="83" width="8" height="8" fill="#9c27b0" opacity="0.18"/>
<rect x="24" y="390" width="6" height="6" fill="#f44336" opacity="0.14"/><rect x="66" y="390" width="6" height="6" fill="#f44336" opacity="0.14"/><rect x="31" y="397" width="6" height="6" fill="#f44336" opacity="0.14"/><rect x="59" y="397" width="6" height="6" fill="#f44336" opacity="0.14"/><rect x="24" y="404" width="6" height="6" fill="#f44336" opacity="0.14"/><rect x="31" y="404" width="6" height="6" fill="#f44336" opacity="0.14"/><rect x="38" y="404" width="6" height="6" fill="#f44336" opacity="0.14"/><rect x="45" y="404" width="6" height="6" fill="#f44336" opacity="0.14"/><rect x="52" y="404" width="6" height="6" fill="#f44336" opacity="0.14"/><rect x="59" y="404" width="6" height="6" fill="#f44336" opacity="0.14"/><rect x="66" y="404" width="6" height="6" fill="#f44336" opacity="0.14"/><rect x="17" y="411" width="6" height="6" fill="#f44336" opacity="0.14"/><rect x="24" y="411" width="6" height="6" fill="#f44336" opacity="0.14"/><rect x="38" y="411" width="6" height="6" fill="#f44336" opacity="0.14"/><rect x="45" y="411" width="6" height="6" fill="#f44336" opacity="0.14"/><rect x="52" y="411" width="6" height="6" fill="#f44336" opacity="0.14"/><rect x="66" y="411" width="6" height="6" fill="#f44336" opacity="0.14"/><rect x="73" y="411" width="6" height="6" fill="#f44336" opacity="0.14"/><rect x="10" y="418" width="6" height="6" fill="#f44336" opacity="0.14"/><rect x="17" y="418" width="6" height="6" fill="#f44336" opacity="0.14"/><rect x="24" y="418" width="6" height="6" fill="#f44336" opacity="0.14"/><rect x="31" y="418" width="6" height="6" fill="#f44336" opacity="0.14"/><rect x="38" y="418" width="6" height="6" fill="#f44336" opacity="0.14"/><rect x="45" y="418" width="6" height="6" fill="#f44336" opacity="0.14"/><rect x="52" y="418" width="6" height="6" fill="#f44336" opacity="0.14"/><rect x="59" y="418" width="6" height="6" fill="#f44336" opacity="0.14"/><rect x="66" y="418" width="6" height="6" fill="#f44336" opacity="0.14"/><rect x="73" y="418" width="6" height="6" fill="#f44336" opacity="0.14"/><rect x="80" y="418" width="6" height="6" fill="#f44336" opacity="0.14"/><rect x="10" y="425" width="6" height="6" fill="#f44336" opacity="0.14"/><rect x="24" y="425" width="6" height="6" fill="#f44336" opacity="0.14"/><rect x="31" y="425" width="6" height="6" fill="#f44336" opacity="0.14"/><rect x="38" y="425" width="6" height="6" fill="#f44336" opacity="0.14"/><rect x="45" y="425" width="6" height="6" fill="#f44336" opacity="0.14"/><rect x="52" y="425" width="6" height="6" fill="#f44336" opacity="0.14"/><rect x="59" y="425" width="6" height="6" fill="#f44336" opacity="0.14"/><rect x="66" y="425" width="6" height="6" fill="#f44336" opacity="0.14"/><rect x="80" y="425" width="6" height="6" fill="#f44336" opacity="0.14"/><rect x="10" y="432" width="6" height="6" fill="#f44336" opacity="0.14"/><rect x="24" y="432" width="6" height="6" fill="#f44336" opacity="0.14"/><rect x="66" y="432" width="6" height="6" fill="#f44336" opacity="0.14"/><rect x="80" y="432" width="6" height="6" fill="#f44336" opacity="0.14"/><rect x="31" y="439" width="6" height="6" fill="#f44336" opacity="0.14"/><rect x="38" y="439" width="6" height="6" fill="#f44336" opacity="0.14"/><rect x="52" y="439" width="6" height="6" fill="#f44336" opacity="0.14"/><rect x="59" y="439" width="6" height="6" fill="#f44336" opacity="0.14"/>
<rect x="494" y="370" width="6" height="6" fill="#00bcd4" opacity="0.16"/><rect x="536" y="370" width="6" height="6" fill="#00bcd4" opacity="0.16"/><rect x="501" y="377" width="6" height="6" fill="#00bcd4" opacity="0.16"/><rect x="529" y="377" width="6" height="6" fill="#00bcd4" opacity="0.16"/><rect x="494" y="384" width="6" height="6" fill="#00bcd4" opacity="0.16"/><rect x="501" y="384" width="6" height="6" fill="#00bcd4" opacity="0.16"/><rect x="508" y="384" width="6" height="6" fill="#00bcd4" opacity="0.16"/><rect x="515" y="384" width="6" height="6" fill="#00bcd4" opacity="0.16"/><rect x="522" y="384" width="6" height="6" fill="#00bcd4" opacity="0.16"/><rect x="529" y="384" width="6" height="6" fill="#00bcd4" opacity="0.16"/><rect x="536" y="384" width="6" height="6" fill="#00bcd4" opacity="0.16"/><rect x="487" y="391" width="6" height="6" fill="#00bcd4" opacity="0.16"/><rect x="494" y="391" width="6" height="6" fill="#00bcd4" opacity="0.16"/><rect x="508" y="391" width="6" height="6" fill="#00bcd4" opacity="0.16"/><rect x="515" y="391" width="6" height="6" fill="#00bcd4" opacity="0.16"/><rect x="522" y="391" width="6" height="6" fill="#00bcd4" opacity="0.16"/><rect x="536" y="391" width="6" height="6" fill="#00bcd4" opacity="0.16"/><rect x="543" y="391" width="6" height="6" fill="#00bcd4" opacity="0.16"/><rect x="480" y="398" width="6" height="6" fill="#00bcd4" opacity="0.16"/><rect x="487" y="398" width="6" height="6" fill="#00bcd4" opacity="0.16"/><rect x="494" y="398" width="6" height="6" fill="#00bcd4" opacity="0.16"/><rect x="501" y="398" width="6" height="6" fill="#00bcd4" opacity="0.16"/><rect x="508" y="398" width="6" height="6" fill="#00bcd4" opacity="0.16"/><rect x="515" y="398" width="6" height="6" fill="#00bcd4" opacity="0.16"/><rect x="522" y="398" width="6" height="6" fill="#00bcd4" opacity="0.16"/><rect x="529" y="398" width="6" height="6" fill="#00bcd4" opacity="0.16"/><rect x="536" y="398" width="6" height="6" fill="#00bcd4" opacity="0.16"/><rect x="543" y="398" width="6" height="6" fill="#00bcd4" opacity="0.16"/><rect x="550" y="398" width="6" height="6" fill="#00bcd4" opacity="0.16"/><rect x="480" y="405" width="6" height="6" fill="#00bcd4" opacity="0.16"/><rect x="494" y="405" width="6" height="6" fill="#00bcd4" opacity="0.16"/><rect x="501" y="405" width="6" height="6" fill="#00bcd4" opacity="0.16"/><rect x="508" y="405" width="6" height="6" fill="#00bcd4" opacity="0.16"/><rect x="515" y="405" width="6" height="6" fill="#00bcd4" opacity="0.16"/><rect x="522" y="405" width="6" height="6" fill="#00bcd4" opacity="0.16"/><rect x="529" y="405" width="6" height="6" fill="#00bcd4" opacity="0.16"/><rect x="536" y="405" width="6" height="6" fill="#00bcd4" opacity="0.16"/><rect x="550" y="405" width="6" height="6" fill="#00bcd4" opacity="0.16"/><rect x="480" y="412" width="6" height="6" fill="#00bcd4" opacity="0.16"/><rect x="494" y="412" width="6" height="6" fill="#00bcd4" opacity="0.16"/><rect x="536" y="412" width="6" height="6" fill="#00bcd4" opacity="0.16"/><rect x="550" y="412" width="6" height="6" fill="#00bcd4" opacity="0.16"/><rect x="501" y="419" width="6" height="6" fill="#00bcd4" opacity="0.16"/><rect x="508" y="419" width="6" height="6" fill="#00bcd4" opacity="0.16"/><rect x="522" y="419" width="6" height="6" fill="#00bcd4" opacity="0.16"/><rect x="529" y="419" width="6" height="6" fill="#00bcd4" opacity="0.16"/>
<rect x="297" y="466" width="6" height="160" fill="#00ff88" opacity="0.7"/><rect x="182" y="496" width="4" height="100" fill="#ff0066" opacity="0.55"/>
<rect x="153" y="130" width="40" height="40" fill="#E040FB"/><rect x="405" y="130" width="40" height="40" fill="#E040FB"/><rect x="195" y="172" width="40" height="40" fill="#E040FB"/><rect x="363" y="172" width="40" height="40" fill="#E040FB"/><rect x="153" y="214" width="40" height="40" fill="#E040FB"/><rect x="195" y="214" width="40" height="40" fill="#E040FB"/><rect x="237" y="214" width="40" height="40" fill="#E040FB"/><rect x="279" y="214" width="40" height="40" fill="#E040FB"/><rect x="321" y="214" width="40" height="40" fill="#E040FB"/><rect x="363" y="214" width="40" height="40" fill="#E040FB"/><rect x="405" y="214" width="40" height="40" fill="#E040FB"/><rect x="111" y="256" width="40" height="40" fill="#E040FB"/><rect x="153" y="256" width="40" height="40" fill="#E040FB"/><rect x="237" y="256" width="40" height="40" fill="#E040FB"/><rect x="279" y="256" width="40" height="40" fill="#E040FB"/><rect x="321" y="256" width="40" height="40" fill="#E040FB"/><rect x="405" y="256" width="40" height="40" fill="#E040FB"/><rect x="447" y="256" width="40" height="40" fill="#E040FB"/><rect x="69" y="298" width="40" height="40" fill="#E040FB"/><rect x="111" y="298" width="40" height="40" fill="#E040FB"/><rect x="153" y="298" width="40" height="40" fill="#E040FB"/><rect x="195" y="298" width="40" height="40" fill="#E040FB"/><rect x="237" y="298" width="40" height="40" fill="#E040FB"/><rect x="279" y="298" width="40" height="40" fill="#E040FB"/><rect x="321" y="298" width="40" height="40" fill="#E040FB"/><rect x="363" y="298" width="40" height="40" fill="#E040FB"/><rect x="405" y="298" width="40" height="40" fill="#E040FB"/><rect x="447" y="298" width="40" height="40" fill="#E040FB"/><rect x="489" y="298" width="40" height="40" fill="#E040FB"/><rect x="69" y="340" width="40" height="40" fill="#E040FB"/><rect x="153" y="340" width="40" height="40" fill="#E040FB"/><rect x="195" y="340" width="40" height="40" fill="#E040FB"/><rect x="237" y="340" width="40" height="40" fill="#E040FB"/><rect x="279" y="340" width="40" height="40" fill="#E040FB"/><rect x="321" y="340" width="40" height="40" fill="#E040FB"/><rect x="363" y="340" width="40" height="40" fill="#E040FB"/><rect x="405" y="340" width="40" height="40" fill="#E040FB"/><rect x="489" y="340" width="40" height="40" fill="#E040FB"/><rect x="69" y="382" width="40" height="40" fill="#E040FB"/><rect x="153" y="382" width="40" height="40" fill="#E040FB"/><rect x="405" y="382" width="40" height="40" fill="#E040FB"/><rect x="489" y="382" width="40" height="40" fill="#E040FB"/><rect x="195" y="424" width="40" height="40" fill="#E040FB"/><rect x="237" y="424" width="40" height="40" fill="#E040FB"/><rect x="321" y="424" width="40" height="40" fill="#E040FB"/><rect x="363" y="424" width="40" height="40" fill="#E040FB"/>
<rect width="600" height="800" fill="url(#fade)"/>
<text x="44" y="740" font-family="'Courier New', monospace" font-size="52" font-weight="bold" fill="#E040FB">SPACE INVADERS</text>
</svg>