<svg xmlns="http://www.w3.org/2000/svg" width="600" height="800" viewBox="0 0 600 800">
<defs>
<radialGradient id="g1" cx="15%" cy="18%" r="55%">
  <stop offset="0%" stop-color="#ff6600" stop-opacity="0.28"/>
  <stop offset="100%" stop-color="#ff6600" stop-opacity="0"/>
</radialGradient>
<radialGradient id="g2" cx="85%" cy="12%" r="45%">
  <stop offset="0%" stop-color="#ff00cc" stop-opacity="0.22"/>
  <stop offset="100%" stop-color="#ff00cc" stop-opacity="0"/>
</radialGradient>
<radialGradient id="g3" cx="10%" cy="82%" r="50%">
  <stop offset="0%" stop-color="#7700ff" stop-opacity="0.24"/>
  <stop offset="100%" stop-color="#7700ff" stop-opacity="0"/>
</radialGradient>
<radialGradient id="g4" cx="88%" cy="78%" r="45%">
  <stop offset="0%" stop-color="#00ccff" stop-opacity="0.22"/>
  <stop offset="100%" stop-color="#00ccff" stop-opacity="0"/>
</radialGradient>
<linearGradient id="trail" x1="0" y1="0" x2="1" y2="0">
  <stop offset="0%" stop-color="#ff6600" stop-opacity="0"/>
  <stop offset="100%" stop-color="#ff6600" stop-opacity="0.9"/>
</linearGradient>
<linearGradient id="groundGrad" x1="0" y1="0" x2="0" y2="1">
  <stop offset="0%" stop-color="#ff6600" stop-opacity="0.6"/>
  <stop offset="100%" stop-color="#ff3300" stop-opacity="0.1"/>
</linearGradient>
<filter id="glow">
  <feGaussianBlur stdDeviation="4" result="blur"/>
  <feMerge><feMergeNode in="blur"/><feMergeNode in="SourceGraphic"/></feMerge>
</filter>
</defs>
<rect width="600" height="800" fill="#080c14"/>
<rect width="600" height="800" fill="url(#g1)"/>
<rect width="600" height="800" fill="url(#g2)"/>
<rect width="600" height="800" fill="url(#g3)"/>
<rect width="600" height="800" fill="url(#g4)"/>
<line x1="0" y1="0" x2="600" y2="0" stroke="rgba(255,255,255,0.012)" stroke-width="1"/><line x1="0" y1="4" x2="600" y2="4" stroke="rgba(255,255,255,0.012)" stroke-width="1"/><line x1="0" y1="8" x2="600" y2="8" stroke="rgba(255,255,255,0.012)" stroke-width="1"/><line x1="0" y1="12" x2="600" y2="12" stroke="rgba(255,255,255,0.012)" stroke-width="1"/><line x1="0" y1="16" x2="600" y2="16" stroke="rgba(255,255,255,0.012)" stroke-width="1"/><line x1="0" y1="20" x2="600" y2="20" stroke="rgba(255,255,255,0.012)" stroke-width="1"/><line x1="0" y1="24" x2="600" y2="24" stroke="rgba(255,255,255,0.012)" stroke-width="1"/><line x1="0" y1="28" x2="600" y2="28" stroke="rgba(255,255,255,0.012)" stroke-width="1"/><line x1="0" y1="32" x2="600" y2="32" stroke="rgba(255,255,255,0.012)" stroke-width="1"/><line x1="0" y1="36" x2="600" y2="36" stroke="rgba(255,255,255,0.012)" stroke-width="1"/><line x1="0" y1="40" x2="600" y2="40" stroke="rgba(255,255,255,0.012)" stroke-width="1"/><line x1="0" y1="44" x2="600" y2="44" stroke="rgba(255,255,255,0.012)" stroke-width="1"/><line x1="0" y1="48" x2="600" y2="48" stroke="rgba(255,255,255,0.012)" stroke-width="1"/><line x1="0" y1="52" x2="600" y2="52" stroke="rgba(255,255,255,0.012)" stroke-width="1"/><line x1="0" y1="56" x2="600" y2="56" stroke="rgba(255,255,255,0.012)" stroke-width="1"/><line x1="0" y1="60" x2="600" y2="60" stroke="rgba(255,255,255,0.012)" stroke-width="1"/><line x1="0" y1="64" x2="600" y2="64" stroke="rgba(255,255,255,0.012)" stroke-width="1"/><line x1="0" y1="68" x2="600" y2="68" stroke="rgba(255,255,255,0.012)" stroke-width="1"/><line x1="0" y1="72" x2="600" y2="72" stroke="rgba(255,255,255,0.012)" stroke-width="1"/><line x1="0" y1="76" x2="600" y2="76" stroke="rgba(255,255,255,0.012)" stroke-width="1"/><line x1="0" y1="80" x2="600" y2="80" stroke="rgba(255,255,255,0.012)" stroke-width="1"/><line x1="0" y1="84" x2="600" y2="84" stroke="rgba(255,255,255,0.012)" stroke-width="1"/><line x1="0" y1="88" x2="600" y2="88" stroke="rgba(255,255,255,0.012)" stroke-width="1"/><line x1="0" y1="92" x2="600" y2="92" stroke="rgba(255,255,255,0.012)" stroke-width="1"/><line x1="0" y1="96" x2="600" y2="96" stroke="rgba(255,255,255,0.012)" stroke-width="1"/><line x1="0" y1="100" x2="600" y2="100" stroke="rgba(255,255,255,0.012)" stroke-width="1"/><line x1="0" y1="104" x2="600" y2="104" stroke="rgba(255,255,255,0.012)" stroke-width="1"/><line x1="0" y1="108" x2="600" y2="108" stroke="rgba(255,255,255,0.012)" stroke-width="1"/><line x1="0" y1="112" x2="600" y2="112" stroke="rgba(255,255,255,0.012)" stroke-width="1"/><line x1="0" y1="116" x2="600" y2="116" stroke="rgba(255,255,255,0.012)" stroke-width="1"/><line x1="0" y1="120" x2="600" y2="120" stroke="rgba(255,255,255,0.012)" stroke-width="1"/><line x1="0" y1="124" x2="600" y2="124" stroke="rgba(255,255,255,0.012)" stroke-width="1"/><line x1="0" y1="128" x2="600" y2="128" stroke="rgba(255,255,255,0.012)" stroke-width="1"/><line x1="0" y1="132" x2="600" y2="132" stroke="rgba(255,255,255,0.012)" stroke-width="1"/><line x1="0" y1="136" x2="600" y2="136" stroke="rgba(255,255,255,0.012)" stroke-width="1"/><line x1="0" y1="140" x2="600" y2="140" stroke="rgba(255,255,255,0.012)" stroke-width="1"/><line x1="0" y1="144" x2="600" y2="144" stroke="rgba(255,255,255,0.012)" stroke-width="1"/><line x1="0" y1="148" x2="600" y2="148" stroke="rgba(255,255,255,0.012)" stroke-width="1"/><line x1="0" y1="152" x2="600" y2="152" stroke="rgba(255,255,255,0.012)" stroke-width="1"/><line x1="0" y1="156" x2="600" y2="156" stroke="rgba(255,255,255,0.012)" stroke-width="1"/><line x1="0" y1="160" x2="600" y2="160" stroke="rgba(255,255,255,0.012)" stroke-width="1"/><line x1="0" y1="164" x2="600" y2="164" stroke="rgba(255,255,255,0.012)" stroke-width="1"/><line x1="0" y1="168" x2="600" y2="168" stroke="rgba(255,255,255,0.012)" stroke-width="1"/><line x1="0" y1="172" x2="600" y2="172" stroke="rgba(255,255,255,0.012)" stroke-width="1"/><line x1="0" y1="176" x2="600" y2="176" stroke="rgba(255,255,255,0.012)" stroke-width="1"/><line x1="0" y1="180" x2="600" y2="180" stroke="rgba(255,255,255,0.012)" stroke-width="1"/><line x1="0" y1="184" x2="600" y2="184" stroke="rgba(255,255,255,0.012)" stroke-width="1"/><line x1="0" y1="188" x2="600" y2="188" stroke="rgba(255,255,255,0.012)" stroke-width="1"/><line x1="0" y1="192" x2="600" y2="192" stroke="rgba(255,255,255,0.012)" stroke-width="1"/><line x1="0" y1="196" x2="600" y2="196" stroke="rgba(255,255,255,0.012)" stroke-width="1"/><line x1="0" y1="200" x2="600" y2="200" stroke="rgba(255,255,255,0.012)" stroke-width="1"/><line x1="0" y1="204" x2="600" y2="204" stroke="rgba(255,255,255,0.012)" stroke-width="1"/><line x1="0" y1="208" x2="600" y2="208" stroke="rgba(255,255,255,0.012)" stroke-width="1"/><line x1="0" y1="212" x2="600" y2="212" stroke="rgba(255,255,255,0.012)" stroke-width="1"/><line x1="0" y1="216" x2="600" y2="216" stroke="rgba(255,255,255,0.012)" stroke-width="1"/><line x1="0" y1="220" x2="600" y2="220" stroke="rgba(255,255,255,0.012)" stroke-width="1"/><line x1="0" y1="224" x2="600" y2="224" stroke="rgba(255,255,255,0.012)" stroke-width="1"/><line x1="0" y1="228" x2="600" y2="228" stroke="rgba(255,255,255,0.012)" stroke-width="1"/><line x1="0" y1="232" x2="600" y2="232" stroke="rgba(255,255,255,0.012)" stroke-width="1"/><line x1="0" y1="236" x2="600" y2="236" stroke="rgba(255,255,255,0.012)" stroke-width="1"/><line x1="0" y1="240" x2="600" y2="240" stroke="rgba(255,255,255,0.012)" stroke-width="1"/><line x1="0" y1="244" x2="600" y2="244" stroke="rgba(255,255,255,0.012)" stroke-width="1"/><line x1="0" y1="248" x2="600" y2="248" stroke="rgba(255,255,255,0.012)" stroke-width="1"/><line x1="0" y1="252" x2="600" y2="252" stroke="rgba(255,255,255,0.012)" stroke-width="1"/><line x1="0" y1="256" x2="600" y2="256" stroke="rgba(255,255,255,0.012)" stroke-width="1"/><line x1="0" y1="260" x2="600" y2="260" stroke="rgba(255,255,255,0.012)" stroke-width="1"/><line x1="0" y1="264" x2="600" y2="264" stroke="rgba(255,255,255,0.012)" stroke-width="1"/><line x1="0" y1="268" x2="600" y2="268" stroke="rgba(255,255,255,0.012)" stroke-width="1"/><line x1="0" y1="272" x2="600" y2="272" stroke="rgba(255,255,255,0.012)" stroke-width="1"/><line x1="0" y1="276" x2="600" y2="276" stroke="rgba(255,255,255,0.012)" stroke-width="1"/><line x1="0" y1="280" x2="600" y2="280" stroke="rgba(255,255,255,0.012)" stroke-width="1"/><line x1="0" y1="284" x2="600" y2="284" stroke="rgba(255,255,255,0.012)" stroke-width="1"/><line x1="0" y1="288" x2="600" y2="288" stroke="rgba(255,255,255,0.012)" stroke-width="1"/><line x1="0" y1="292" x2="600" y2="292" stroke="rgba(255,255,255,0.012)" stroke-width="1"/><line x1="0" y1="296" x2="600" y2="296" stroke="rgba(255,255,255,0.012)" stroke-width="1"/><line x1="0" y1="300" x2="600" y2="300" stroke="rgba(255,255,255,0.012)" stroke-width="1"/><line x1="0" y1="304" x2="600" y2="304" stroke="rgba(255,255,255,0.012)" stroke-width="1"/><line x1="0" y1="308" x2="600" y2="308" stroke="rgba(255,255,255,0.012)" stroke-width="1"/><line x1="0" y1="312" x2="600" y2="312" stroke="rgba(255,255,255,0.012)" stroke-width="1"/><line x1="0" y1="316" x2="600" y2="316" stroke="rgba(255,255,255,0.012)" stroke-width="1"/><line x1="0" y1="320" x2="600" y2="320" stroke="rgba(255,255,255,0.012)" stroke-width="1"/><line x1="0" y1="324" x2="600" y2="324" stroke="rgba(255,255,255,0.012)" stroke-width="1"/><line x1="0" y1="328" x2="600" y2="328" stroke="rgba(255,255,255,0.012)" stroke-width="1"/><line x1="0" y1="332" x2="600" y2="332" stroke="rgba(255,255,255,0.012)" stroke-width="1"/><line x1="0" y1="336" x2="600" y2="336" stroke="rgba(255,255,255,0.012)" stroke-width="1"/><line x1="0" y1="340" x2="600" y2="340" stroke="rgba(255,255,255,0.012)" stroke-width="1"/><line x1="0" y1="344" x2="600" y2="344" stroke="rgba(255,255,255,0.012)" stroke-width="1"/><line x1="0" y1="348" x2="600" y2="348" stroke="rgba(255,255,255,0.012)" stroke-width="1"/><line x1="0" y1="352" x2="600" y2="352" stroke="rgba(255,255,255,0.012)" stroke-width="1"/><line x1="0" y1="356" x2="600" y2="356" stroke="rgba(255,255,255,0.012)" stroke-width="1"/><line x1="0" y1="360" x2="600" y2="360" stroke="rgba(255,255,255,0.012)" stroke-width="1"/><line x1="0" y1="364" x2="600" y2="364" stroke="rgba(255,255,255,0.012)" stroke-width="1"/><line x1="0" y1="368" x2="600" y2="368" stroke="rgba(255,255,255,0.012)" stroke-width="1"/><line x1="0" y1="372" x2="600" y2="372" stroke="rgba(255,255,255,0.012)" stroke-width="1"/><line x1="0" y1="376" x2="600" y2="376" stroke="rgba(255,255,255,0.012)" stroke-width="1"/><line x1="0" y1="380" x2="600" y2="380" stroke="rgba(255,255,255,0.012)" stroke-width="1"/><line x1="0" y1="384" x2="600" y2="384" stroke="rgba(255,255,255,0.012)" stroke-width="1"/><line x1="0" y1="388" x2="600" y2="388" stroke="rgba(255,255,255,0.012)" stroke-width="1"/><line x1="0" y1="392" x2="600" y2="392" stroke="rgba(255,255,255,0.012)" stroke-width="1"/><line x1="0" y1="396" x2="600" y2="396" stroke="rgba(255,255,255,0.012)" stroke-width="1"/><line x1="0" y1="400" x2="600" y2="400" stroke="rgba(255,255,255,0.012)" stroke-width="1"/><line x1="0" y1="404" x2="600" y2="404" stroke="rgba(255,255,255,0.012)" stroke-width="1"/><line x1="0" y1="408" x2="600" y2="408" stroke="rgba(255,255,255,0.012)" stroke-width="1"/><line x1="0" y1="412" x2="600" y2="412" stroke="rgba(255,255,255,0.012)" stroke-width="1"/><line x1="0" y1="416" x2="600" y2="416" stroke="rgba(255,255,255,0.012)" stroke-width="1"/><line x1="0" y1="420" x2="600" y2="420" stroke="rgba(255,255,255,0.012)" stroke-width="1"/><line x1="0" y1="424" x2="600" y2="424" stroke="rgba(255,255,255,0.012)" stroke-width="1"/><line x1="0" y1="428" x2="600" y2="428" stroke="rgba(255,255,255,0.012)" stroke-width="1"/><line x1="0" y1="432" x2="600" y2="432" stroke="rgba(255,255,255,0.012)" stroke-width="1"/><line x1="0" y1="436" x2="600" y2="436" stroke="rgba(255,255,255,0.012)" stroke-width="1"/><line x1="0" y1="440" x2="600" y2="440" stroke="rgba(255,255,255,0.012)" stroke-width="1"/><line x1="0" y1="444" x2="600" y2="444" stroke="rgba(255,255,255,0.012)" stroke-width="1"/><line x1="0" y1="448" x2="600" y2="448" stroke="rgba(255,255,255,0.012)" stroke-width="1"/><line x1="0" y1="452" x2="600" y2="452" stroke="rgba(255,255,255,0.012)" stroke-width="1"/><line x1="0" y1="456" x2="600" y2="456" stroke="rgba(255,255,255,0.012)" stroke-width="1"/><line x1="0" y1="460" x2="600" y2="460" stroke="rgba(255,255,255,0.012)" stroke-width="1"/><line x1="0" y1="464" x2="600" y2="464" stroke="rgba(255,255,255,0.012)" stroke-width="1"/><line x1="0" y1="468" x2="600" y2="468" stroke="rgba(255,255,255,0.012)" stroke-width="1"/><line x1="0" y1="472" x2="600" y2="472" stroke="rgba(255,255,255,0.012)" stroke-width="1"/><line x1="0" y1="476" x2="600" y2="476" stroke="rgba(255,255,255,0.012)" stroke-width="1"/><line x1="0" y1="480" x2="600" y2="480" stroke="rgba(255,255,255,0.012)" stroke-width="1"/><line x1="0" y1="484" x2="600" y2="484" stroke="rgba(255,255,255,0.012)" stroke-width="1"/><line x1="0" y1="488" x2="600" y2="488" stroke="rgba(255,255,255,0.012)" stroke-width="1"/><line x1="0" y1="492" x2="600" y2="492" stroke="rgba(255,255,255,0.012)" stroke-width="1"/><line x1="0" y1="496" x2="600" y2="496" stroke="rgba(255,255,255,0.012)" stroke-width="1"/><line x1="0" y1="500" x2="600" y2="500" stroke="rgba(255,255,255,0.012)" stroke-width="1"/><line x1="0" y1="504" x2="600" y2="504" stroke="rgba(255,255,255,0.012)" stroke-width="1"/><line x1="0" y1="508" x2="600" y2="508" stroke="rgba(255,255,255,0.012)" stroke-width="1"/><line x1="0" y1="512" x2="600" y2="512" stroke="rgba(255,255,255,0.012)" stroke-width="1"/><line x1="0" y1="516" x2="600" y2="516" stroke="rgba(255,255,255,0.012)" stroke-width="1"/><line x1="0" y1="520" x2="600" y2="520" stroke="rgba(255,255,255,0.012)" stroke-width="1"/><line x1="0" y1="524" x2="600" y2="524" stroke="rgba(255,255,255,0.012)" stroke-width="1"/><line x1="0" y1="528" x2="600" y2="528" stroke="rgba(255,255,255,0.012)" stroke-width="1"/><line x1="0" y1="532" x2="600" y2="532" stroke="rgba(255,255,255,0.012)" stroke-width="1"/><line x1="0" y1="536" x2="600" y2="536" stroke="rgba(255,255,255,0.012)" stroke-width="1"/><line x1="0" y1="540" x2="600" y2="540" stroke="rgba(255,255,255,0.012)" stroke-width="1"/><line x1="0" y1="544" x2="600" y2="544" stroke="rgba(255,255,255,0.012)" stroke-width="1"/><line x1="0" y1="548" x2="600" y2="548" stroke="rgba(255,255,255,0.012)" stroke-width="1"/><line x1="0" y1="552" x2="600" y2="552" stroke="rgba(255,255,255,0.012)" stroke-width="1"/><line x1="0" y1="556" x2="600" y2="556" stroke="rgba(255,255,255,0.012)" stroke-width="1"/><line x1="0" y1="560" x2="600" y2="560" stroke="rgba(255,255,255,0.012)" stroke-width="1"/><line x1="0" y1="564" x2="600" y2="564" stroke="rgba(255,255,255,0.012)" stroke-width="1"/><line x1="0" y1="568" x2="600" y2="568" stroke="rgba(255,255,255,0.012)" stroke-width="1"/><line x1="0" y1="572" x2="600" y2="572" stroke="rgba(255,255,255,0.012)" stroke-width="1"/><line x1="0" y1="576" x2="600" y2="576" stroke="rgba(255,255,255,0.012)" stroke-width="1"/><line x1="0" y1="580" x2="600" y2="580" stroke="rgba(255,255,255,0.012)" stroke-width="1"/><line x1="0" y1="584" x2="600" y2="584" stroke="rgba(255,255,255,0.012)" stroke-width="1"/><line x1="0" y1="588" x2="600" y2="588" stroke="rgba(255,255,255,0.012)" stroke-width="1"/><line x1="0" y1="592" x2="600" y2="592" stroke="rgba(255,255,255,0.012)" stroke-width="1"/><line x1="0" y1="596" x2="600" y2="596" stroke="rgba(255,255,255,0.012)" stroke-width="1"/><line x1="0" y1="600" x2="600" y2="600" stroke="rgba(255,255,255,0.012)" stroke-width="1"/><line x1="0" y1="604" x2="600" y2="604" stroke="rgba(255,255,255,0.012)" stroke-width="1"/><line x1="0" y1="608" x2="600" y2="608" stroke="rgba(255,255,255,0.012)" stroke-width="1"/><line x1="0" y1="612" x2="600" y2="612" stroke="rgba(255,255,255,0.012)" stroke-width="1"/><line x1="0" y1="616" x2="600" y2="616" stroke="rgba(255,255,255,0.012)" stroke-width="1"/><line x1="0" y1="620" x2="600" y2="620" stroke="rgba(255,255,255,0.012)" stroke-width="1"/><line x1="0" y1="624" x2="600" y2="624" stroke="rgba(255,255,255,0.012)" stroke-width="1"/><line x1="0" y1="628" x2="600" y2="628" stroke="rgba(255,255,255,0.012)" stroke-width="1"/><line x1="0" y1="632" x2="600" y2="632" stroke="rgba(255,255,255,0.012)" stroke-width="1"/><line x1="0" y1="636" x2="600" y2="636" stroke="rgba(255,255,255,0.012)" stroke-width="1"/><line x1="0" y1="640" x2="600" y2="640" stroke="rgba(255,255,255,0.012)" stroke-width="1"/><line x1="0" y1="644" x2="600" y2="644" stroke="rgba(255,255,255,0.012)" stroke-width="1"/><line x1="0" y1="648" x2="600" y2="648" stroke="rgba(255,255,255,0.012)" stroke-width="1"/><line x1="0" y1="652" x2="600" y2="652" stroke="rgba(255,255,255,0.012)" stroke-width="1"/><line x1="0" y1="656" x2="600" y2="656" stroke="rgba(255,255,255,0.012)" stroke-width="1"/><line x1="0" y1="660" x2="600" y2="660" stroke="rgba(255,255,255,0.012)" stroke-width="1"/><line x1="0" y1="664" x2="600" y2="664" stroke="rgba(255,255,255,0.012)" stroke-width="1"/><line x1="0" y1="668" x2="600" y2="668" stroke="rgba(255,255,255,0.012)" stroke-width="1"/><line x1="0" y1="672" x2="600" y2="672" stroke="rgba(255,255,255,0.012)" stroke-width="1"/><line x1="0" y1="676" x2="600" y2="676" stroke="rgba(255,255,255,0.012)" stroke-width="1"/><line x1="0" y1="680" x2="600" y2="680" stroke="rgba(255,255,255,0.012)" stroke-width="1"/><line x1="0" y1="684" x2="600" y2="684" stroke="rgba(255,255,255,0.012)" stroke-width="1"/><line x1="0" y1="688" x2="600" y2="688" stroke="rgba(255,255,255,0.012)" stroke-width="1"/><line x1="0" y1="692" x2="600" y2="692" stroke="rgba(255,255,255,0.012)" stroke-width="1"/><line x1="0" y1="696" x2="600" y2="696" stroke="rgba(255,255,255,0.012)" stroke-width="1"/><line x1="0" y1="700" x2="600" y2="700" stroke="rgba(255,255,255,0.012)" stroke-width="1"/><line x1="0" y1="704" x2="600" y2="704" stroke="rgba(255,255,255,0.012)" stroke-width="1"/><line x1="0" y1="708" x2="600" y2="708" stroke="rgba(255,255,255,0.012)" stroke-width="1"/><line x1="0" y1="712" x2="600" y2="712" stroke="rgba(255,255,255,0.012)" stroke-width="1"/><line x1="0" y1="716" x2="600" y2="716" stroke="rgba(255,255,255,0.012)" stroke-width="1"/><line x1="0" y1="720" x2="600" y2="720" stroke="rgba(255,255,255,0.012)" stroke-width="1"/><line x1="0" y1="724" x2="600" y2="724" stroke="rgba(255,255,255,0.012)" stroke-width="1"/><line x1="0" y1="728" x2="600" y2="728" stroke="rgba(255,255,255,0.012)" stroke-width="1"/><line x1="0" y1="732" x2="600" y2="732" stroke="rgba(255,255,255,0.012)" stroke-width="1"/><line x1="0" y1="736" x2="600" y2="736" stroke="rgba(255,255,255,0.012)" stroke-width="1"/><line x1="0" y1="740" x2="600" y2="740" stroke="rgba(255,255,255,0.012)" stroke-width="1"/><line x1="0" y1="744" x2="600" y2="744" stroke="rgba(255,255,255,0.012)" stroke-width="1"/><line x1="0" y1="748" x2="600" y2="748" stroke="rgba(255,255,255,0.012)" stroke-width="1"/><line x1="0" y1="752" x2="600" y2="752" stroke="rgba(255,255,255,0.012)" stroke-width="1"/><line x1="0" y1="756" x2="600" y2="756" stroke="rgba(255,255,255,0.012)" stroke-width="1"/><line x1="0" y1="760" x2="600" y2="760" stroke="rgba(255,255,255,0.012)" stroke-width="1"/><line x1="0" y1="764" x2="600" y2="764" stroke="rgba(255,255,255,0.012)" stroke-width="1"/><line x1="0" y1="768" x2="600" y2="768" stroke="rgba(255,255,255,0.012)" stroke-width="1"/><line x1="0" y1="772" x2="600" y2="772" stroke="rgba(255,255,255,0.012)" stroke-width="1"/><line x1="0" y1="776" x2="600" y2="776" stroke="rgba(255,255,255,0.012)" stroke-width="1"/><line x1="0" y1="780" x2="600" y2="780" stroke="rgba(255,255,255,0.012)" stroke-width="1"/><line x1="0" y1="784" x2="600" y2="784" stroke="rgba(255,255,255,0.012)" stroke-width="1"/><line x1="0" y1="788" x2="600" y2="788" stroke="rgba(255,255,255,0.012)" stroke-width="1"/><line x1="0" y1="792" x2="600" y2="792" stroke="rgba(255,255,255,0.012)" stroke-width="1"/><line x1="0" y1="796" x2="600" y2="796" stroke="rgba(255,255,255,0.012)" stroke-width="1"/>
<line x1="0" y1="540" x2="600" y2="540" stroke="#ff6600" stroke-width="1" opacity="0.06"/><line x1="0" y1="568" x2="600" y2="568" stroke="#ff6600" stroke-width="1" opacity="0.07"/><line x1="0" y1="596" x2="600" y2="596" stroke="#ff6600" stroke-width="1" opacity="0.09"/><line x1="0" y1="624" x2="600" y2="624" stroke="#ff6600" stroke-width="1" opacity="0.10"/><line x1="0" y1="652" x2="600" y2="652" stroke="#ff6600" stroke-width="1" opacity="0.12"/><line x1="0" y1="680" x2="600" y2="680" stroke="#ff6600" stroke-width="1" opacity="0.14"/><line x1="0" y1="708" x2="600" y2="708" stroke="#ff6600" stroke-width="1" opacity="0.15"/><line x1="0" y1="736" x2="600" y2="736" stroke="#ff6600" stroke-width="1" opacity="0.16"/><line x1="300" y1="540" x2="-60" y2="740" stroke="#ff6600" stroke-width="0.8" opacity="0.08"/><line x1="300" y1="540" x2="-15" y2="740" stroke="#ff6600" stroke-width="0.8" opacity="0.08"/><line x1="300" y1="540" x2="30" y2="740" stroke="#ff6600" stroke-width="0.8" opacity="0.08"/><line x1="300" y1="540" x2="75" y2="740" stroke="#ff6600" stroke-width="0.8" opacity="0.08"/><line x1="300" y1="540" x2="120" y2="740" stroke="#ff6600" stroke-width="0.8" opacity="0.08"/><line x1="300" y1="540" x2="165" y2="740" stroke="#ff6600" stroke-width="0.8" opacity="0.08"/><line x1="300" y1="540" x2="210" y2="740" stroke="#ff6600" stroke-width="0.8" opacity="0.08"/><line x1="300" y1="540" x2="255" y2="740" stroke="#ff6600" stroke-width="0.8" opacity="0.08"/><line x1="300" y1="540" x2="300" y2="740" stroke="#ff6600" stroke-width="0.8" opacity="0.08"/><line x1="300" y1="540" x2="345" y2="740" stroke="#ff6600" stroke-width="0.8" opacity="0.08"/><line x1="300" y1="540" x2="390" y2="740" stroke="#ff6600" stroke-width="0.8" opacity="0.08"/><line x1="300" y1="540" x2="435" y2="740" stroke="#ff6600" stroke-width="0.8" opacity="0.08"/><line x1="300" y1="540" x2="480" y2="740" stroke="#ff6600" stroke-width="0.8" opacity="0.08"/><line x1="300" y1="540" x2="525" y2="740" stroke="#ff6600" stroke-width="0.8" opacity="0.08"/><line x1="300" y1="540" x2="570" y2="740" stroke="#ff6600" stroke-width="0.8" opacity="0.08"/><line x1="300" y1="540" x2="615" y2="740" stroke="#ff6600" stroke-width="0.8" opacity="0.08"/><line x1="300" y1="540" x2="660" y2="740" stroke="#ff6600" stroke-width="0.8" opacity="0.08"/><rect x="0" y="537" width="600" height="6" fill="#ff6600" opacity="0.55"/><rect x="0" y="532" width="600" height="16" fill="#ff6600" opacity="0.12"/><rect x="-10" y="200" width="320" height="3" rx="1.5" fill="url(#trail)" opacity="0.12"/><rect x="-10" y="230" width="260" height="3" rx="1.5" fill="url(#trail)" opacity="0.09"/><rect x="-10" y="260" width="200" height="3" rx="1.5" fill="url(#trail)" opacity="0.07"/><rect x="-10" y="180" width="180" height="3" rx="1.5" fill="url(#trail)" opacity="0.06"/><rect x="-10" y="290" width="140" height="3" rx="1.5" fill="url(#trail)" opacity="0.05"/><rect x="-10" y="160" width="100" height="3" rx="1.5" fill="url(#trail)" opacity="0.04"/><rect x="80" y="485" width="55" height="55" rx="4" fill="#9C27B0" opacity="0.9"/><rect x="83" y="488" width="49" height="10" rx="2" fill="rgba(255,255,255,0.2)"/><polygon points="190,540 238,540 214,492" fill="#FF3300" stroke="#FF3300" stroke-width="1" opacity="0.9"/><polygon points="190,540 238,540 214,492" fill="none" stroke="rgba(255,255,255,0.3)" stroke-width="1"/><polygon points="252,540 300,540 276,492" fill="#FF3300" stroke="#FF3300" stroke-width="1" opacity="0.9"/><polygon points="252,540 300,540 276,492" fill="none" stroke="rgba(255,255,255,0.3)" stroke-width="1"/><rect x="340" y="455" width="42" height="85" rx="4" fill="#7B1FA2" opacity="0.9"/><rect x="343" y="458" width="36" height="10" rx="2" fill="rgba(255,255,255,0.2)"/><rect x="340" y="498" width="42" height="42" rx="4" fill="#AB47BC" opacity="0.9"/><rect x="343" y="501" width="36" height="10" rx="2" fill="rgba(255,255,255,0.2)"/><polygon points="450,540 505,540 477,485" fill="#FF5722" stroke="#FF5722" stroke-width="1" opacity="0.9"/><polygon points="450,540 505,540 477,485" fill="none" stroke="rgba(255,255,255,0.3)" stroke-width="1"/><polygon points="558.0,484.0 547.6,488.7 554.2,498.0 542.9,496.9 544.0,508.2 534.7,501.6 530.0,512.0 525.3,501.6 516.0,508.2 517.1,496.9 505.8,498.0 512.4,488.7 502.0,484.0 512.4,479.3 505.8,470.0 517.1,471.1 516.0,459.8 525.3,466.4 530.0,456.0 534.7,466.4 544.0,459.8 542.9,471.1 554.2,470.0 547.6,479.3" fill="#FF6600" opacity="0.85"/><circle cx="530" cy="484" r="8" fill="rgba(255,255,255,0.4)"/><circle cx="155" cy="445" r="12" fill="#FFD700" opacity="0.9"/><circle cx="152" cy="442" r="4" fill="#FFF9C4" opacity="0.6"/><circle cx="155" cy="445" r="18" fill="none" stroke="#FFD700" stroke-width="1.5" opacity="0.35"/><circle cx="290" cy="410" r="12" fill="#FFD700" opacity="0.9"/><circle cx="287" cy="407" r="4" fill="#FFF9C4" opacity="0.6"/><circle cx="290" cy="410" r="18" fill="none" stroke="#FFD700" stroke-width="1.5" opacity="0.35"/><circle cx="420" cy="430" r="12" fill="#FFD700" opacity="0.9"/><circle cx="417" cy="427" r="4" fill="#FFF9C4" opacity="0.6"/><circle cx="420" cy="430" r="18" fill="none" stroke="#FFD700" stroke-width="1.5" opacity="0.35"/><rect x="278" y="460" width="70" height="70" rx="10" fill="#FF6600" opacity="0.18" transform="rotate(-5,313,495)"/><rect x="256" y="463" width="70" height="70" rx="10" fill="#FF6600" opacity="0.15" transform="rotate(-10,291,498)"/><rect x="234" y="466" width="70" height="70" rx="10" fill="#FF6600" opacity="0.12" transform="rotate(-15,269,501)"/><rect x="212" y="469" width="70" height="70" rx="10" fill="#FF6600" opacity="0.09" transform="rotate(-20,247,504)"/><rect x="190" y="472" width="70" height="70" rx="10" fill="#FF6600" opacity="0.06" transform="rotate(-25,225,507)"/><rect x="300" y="460" width="70" height="70" rx="10" fill="#FF6600"/><rect x="308" y="468" width="54" height="54" rx="6" fill="none" stroke="rgba(255,255,255,0.4)" stroke-width="2"/><circle cx="322" cy="486" r="7" fill="white"/><circle cx="348" cy="486" r="7" fill="white"/><circle cx="324" cy="487" r="4" fill="#1a1a2e"/><circle cx="350" cy="487" r="4" fill="#1a1a2e"/><path d="M 320 508 Q 335 518 350 508" stroke="white" stroke-width="2.5" fill="none" stroke-linecap="round"/><rect x="292" y="452" width="86" height="86" rx="16" fill="none" stroke="#FF6600" stroke-width="2" opacity="0.4"/><rect x="286" y="446" width="98" height="98" rx="20" fill="none" stroke="#FF6600" stroke-width="1" opacity="0.15"/><polygon points="525.0,82.1 570.0,160.0 525.0,237.9 435.0,237.9 390.0,160.0 435.0,82.1" fill="none" stroke="#00ccff" stroke-width="1.5" opacity="0.14"/><polygon points="535.0,64.7 590.0,160.0 535.0,255.3 425.0,255.3 370.0,160.0 425.0,64.7" fill="none" stroke="#00ccff" stroke-width="1.5" opacity="0.07"/><polygon points="128.1,132.4 159.5,249.5 42.4,218.1" fill="none" stroke="#ff00cc" stroke-width="1.5" opacity="0.13"/><polygon points="133.3,113.1 173.6,263.6 23.1,223.3" fill="none" stroke="#ff00cc" stroke-width="1.5" opacity="0.06"/><polygon points="338.9,101.1 338.9,178.9 261.1,178.9 261.1,101.1" fill="none" stroke="#7700ff" stroke-width="1.5" opacity="0.12"/><polygon points="350.9,89.1 350.9,190.9 249.1,190.9 249.1,89.1" fill="none" stroke="#7700ff" stroke-width="1.5" opacity="0.06"/>
<defs>
<linearGradient id="fade" x1="0" y1="0" x2="0" y2="1">
  <stop offset="45%" stop-color="rgba(0,0,0,0)"/>
  <stop offset="100%" stop-color="rgba(0,0,0,0.92)"/>
</linearGradient>
</defs>
<rect width="600" height="800" fill="url(#fade)"/>
<text x="50%" y="748" font-family="'Courier New', monospace" font-size="50" font-weight="bold" fill="white" text-anchor="middle" letter-spacing="8">POLY DASH</text>

</svg>